<svg width="930" height="822" viewBox="0 0 930 822" fill="none" xmlns="http://www.w3.org/2000/svg">
<circle cx="491" cy="388" r="201.777" stroke="#F5F6F7" stroke-width="2"/>
<circle cx="491" cy="388" r="432.417" stroke="#F5F6F7" stroke-width="2"/>
<g filter="url(#filter0_d_13001_2881)">
<path d="M772.284 572.066L790.353 592.236C791.678 593.714 794.128 592.798 794.157 590.814L794.306 580.771C794.315 580.171 794.571 579.601 795.015 579.195L802.457 572.388C803.92 571.05 802.982 568.612 800.999 568.599L773.921 568.431C772.03 568.419 771.022 570.657 772.284 572.066Z" fill="#145DB8"/>
<path d="M772.284 572.066L790.353 592.236C791.678 593.714 794.128 592.798 794.157 590.814L794.306 580.771C794.315 580.171 794.571 579.601 795.015 579.195L802.457 572.388C803.92 571.05 802.982 568.612 800.999 568.599L773.921 568.431C772.03 568.419 771.022 570.657 772.284 572.066Z" stroke="white" stroke-width="2.54352"/>
</g>
<g filter="url(#filter1_d_13001_2881)">
<path d="M95.2229 371.874C94.2546 371.874 93.3259 371.489 92.6412 370.805C91.9565 370.12 91.5719 369.191 91.5719 368.223C91.5719 367.255 91.9565 366.326 92.6412 365.641C93.3259 364.957 94.2546 364.572 95.2229 364.572C96.1912 364.572 97.1199 364.957 97.8046 365.641C98.4893 366.326 98.874 367.255 98.874 368.223C98.874 368.702 98.7795 369.177 98.596 369.62C98.4126 370.063 98.1436 370.466 97.8046 370.805C97.4656 371.144 97.0631 371.413 96.6201 371.596C96.1771 371.78 95.7024 371.874 95.2229 371.874ZM95.2229 358C92.5116 358 89.9114 359.077 87.9942 360.994C86.0771 362.911 85 365.512 85 368.223C85 375.89 95.2229 387.208 95.2229 387.208C95.2229 387.208 105.446 375.89 105.446 368.223C105.446 365.512 104.369 362.911 102.452 360.994C100.534 359.077 97.9342 358 95.2229 358Z" fill="#145DB8"/>
<path d="M95.2227 356.73C98.2708 356.73 101.194 357.941 103.35 360.097C105.505 362.252 106.716 365.175 106.716 368.223C106.716 370.396 105.999 372.731 105.008 374.943C104.009 377.172 102.689 379.371 101.387 381.301C100.083 383.234 98.7814 384.919 97.8066 386.12C97.3187 386.721 96.9107 387.203 96.624 387.536C96.4809 387.702 96.3681 387.832 96.29 387.92C96.251 387.964 96.2201 387.998 96.1992 388.021C96.1888 388.033 96.1805 388.043 96.1748 388.049C96.172 388.052 96.1696 388.055 96.168 388.057L96.166 388.059V388.06C96.1657 388.06 96.1566 388.052 95.2227 387.208L96.165 388.06L95.2227 389.104L94.2803 388.06L94.2773 388.057C94.2757 388.055 94.2733 388.052 94.2705 388.049C94.2648 388.043 94.2565 388.033 94.2461 388.021C94.2252 387.998 94.1951 387.964 94.1562 387.92C94.0781 387.831 93.9646 387.702 93.8213 387.536C93.5346 387.203 93.1276 386.721 92.6396 386.12C91.6649 384.919 90.3628 383.234 89.0586 381.301C87.7568 379.371 86.4369 377.172 85.4385 374.943C84.4475 372.731 83.7305 370.396 83.7305 368.223C83.7305 365.175 84.9414 362.252 87.0967 360.097C89.252 357.941 92.1746 356.731 95.2227 356.73ZM95.2227 365.842C94.5913 365.842 93.9855 366.093 93.5391 366.539C93.0926 366.986 92.8419 367.591 92.8418 368.223C92.8418 368.854 93.0927 369.46 93.5391 369.906C93.9855 370.353 94.5913 370.603 95.2227 370.604C95.5352 370.604 95.845 370.542 96.1338 370.423C96.4227 370.303 96.6851 370.127 96.9062 369.906C97.1274 369.685 97.3032 369.423 97.4229 369.134C97.5424 368.845 97.6035 368.535 97.6035 368.223C97.6034 367.591 97.3527 366.986 96.9062 366.539C96.4597 366.093 95.854 365.842 95.2227 365.842Z" stroke="white" stroke-width="2.54"/>
</g>
<g filter="url(#filter2_d_13001_2881)">
<rect x="817.875" y="570" width="119" height="34" rx="17" transform="rotate(27.8331 817.875 570)" fill="#F5F6F7" shape-rendering="crispEdges"/>
<path d="M837.513 600.538C837.697 600.882 837.8 601.261 837.824 601.674C837.847 602.087 837.741 602.517 837.505 602.963C837.264 603.419 836.956 603.763 836.581 603.995C836.205 604.226 835.801 604.367 835.369 604.415C834.949 604.464 834.514 604.441 834.064 604.344C833.618 604.251 833.189 604.094 832.774 603.876L828.131 601.424L828.39 600.934C828.506 600.983 828.677 601.05 828.903 601.134C829.132 601.213 829.303 601.257 829.417 601.264C829.594 601.275 829.741 601.243 829.856 601.169C829.975 601.09 830.079 600.965 830.169 600.795L833.889 593.748C833.972 593.591 834.017 593.439 834.025 593.29C834.038 593.143 833.985 592.992 833.868 592.835C833.766 592.693 833.64 592.559 833.489 592.432C833.338 592.305 833.207 592.207 833.097 592.137L833.356 591.646L837.881 594.036C838.231 594.22 838.547 594.431 838.828 594.668C839.114 594.907 839.356 595.191 839.554 595.519C839.74 595.824 839.848 596.161 839.877 596.53C839.906 596.898 839.816 597.281 839.607 597.677C839.425 598.022 839.2 598.298 838.932 598.504C838.666 598.706 838.37 598.844 838.042 598.918C837.733 598.99 837.406 599.018 837.062 599.001C836.724 598.982 836.378 598.923 836.024 598.824L835.991 598.886C836.255 599.067 836.531 599.304 836.818 599.597C837.112 599.887 837.344 600.201 837.513 600.538ZM836.629 598.181C836.904 598.073 837.136 597.918 837.324 597.717C837.517 597.519 837.699 597.258 837.869 596.936C838.154 596.397 838.229 595.898 838.095 595.438C837.963 594.974 837.579 594.574 836.943 594.239C836.796 594.161 836.607 594.067 836.376 593.957C836.153 593.845 835.964 593.751 835.81 593.675L833.822 597.44L834.699 597.904C835.077 598.103 835.425 598.225 835.743 598.269C836.066 598.316 836.361 598.286 836.629 598.181ZM835.93 601.814C836.236 601.233 836.292 600.653 836.098 600.073C835.908 599.496 835.451 599.017 834.728 598.635C834.433 598.479 834.182 598.352 833.975 598.255C833.77 598.152 833.615 598.077 833.512 598.028L831.688 601.482C831.535 601.772 831.536 602.053 831.694 602.324C831.851 602.596 832.139 602.842 832.558 603.063C833.244 603.426 833.875 603.503 834.45 603.294C835.026 603.085 835.519 602.592 835.93 601.814ZM845.704 606.259C845.451 606.738 845.126 607.17 844.728 607.554C844.333 607.935 843.91 608.212 843.459 608.386C842.947 608.587 842.433 608.666 841.919 608.625C841.405 608.583 840.888 608.425 840.368 608.15C839.935 607.921 839.565 607.623 839.259 607.255C838.955 606.883 838.734 606.46 838.595 605.986C838.458 605.519 838.417 605.017 838.471 604.48C838.532 603.941 838.708 603.395 839 602.843C839.562 601.779 840.33 601.071 841.305 600.72C842.284 600.371 843.275 600.462 844.28 600.992C845.233 601.495 845.848 602.232 846.125 603.203C846.408 604.171 846.268 605.19 845.704 606.259ZM844.267 605.517C844.449 605.172 844.607 604.79 844.739 604.371C844.875 603.948 844.944 603.566 844.947 603.226C844.95 602.862 844.877 602.532 844.727 602.235C844.58 601.934 844.334 601.692 843.988 601.51C843.634 601.322 843.284 601.249 842.938 601.291C842.597 601.334 842.268 601.467 841.951 601.688C841.655 601.891 841.382 602.157 841.133 602.484C840.883 602.812 840.67 603.144 840.492 603.48C840.259 603.922 840.077 604.351 839.946 604.765C839.823 605.177 839.762 605.571 839.763 605.949C839.764 606.326 839.837 606.662 839.982 606.957C840.134 607.249 840.385 607.487 840.735 607.672C841.311 607.976 841.914 607.938 842.544 607.559C843.175 607.179 843.749 606.498 844.267 605.517ZM853.331 610.286C853.078 610.765 852.753 611.197 852.356 611.581C851.96 611.962 851.537 612.239 851.086 612.413C850.574 612.614 850.061 612.693 849.547 612.652C849.033 612.61 848.515 612.452 847.995 612.177C847.562 611.948 847.192 611.65 846.886 611.282C846.582 610.91 846.361 610.487 846.222 610.013C846.086 609.546 846.044 609.044 846.098 608.507C846.159 607.968 846.335 607.422 846.627 606.87C847.189 605.806 847.957 605.098 848.932 604.747C849.911 604.398 850.903 604.489 851.907 605.019C852.86 605.522 853.475 606.259 853.752 607.23C854.036 608.198 853.895 609.217 853.331 610.286ZM851.894 609.544C852.076 609.199 852.234 608.817 852.367 608.398C852.502 607.975 852.571 607.593 852.574 607.253C852.577 606.889 852.504 606.559 852.354 606.262C852.207 605.961 851.961 605.719 851.616 605.537C851.261 605.349 850.911 605.276 850.565 605.318C850.224 605.361 849.895 605.494 849.578 605.715C849.282 605.918 849.009 606.184 848.76 606.511C848.51 606.839 848.297 607.171 848.119 607.507C847.886 607.949 847.704 608.378 847.574 608.792C847.45 609.204 847.389 609.598 847.39 609.976C847.391 610.353 847.464 610.689 847.609 610.984C847.761 611.276 848.012 611.514 848.362 611.699C848.938 612.003 849.541 611.965 850.171 611.586C850.802 611.206 851.376 610.525 851.894 609.544ZM859.704 618.094L857.645 617.007C857.561 616.297 857.47 615.537 857.374 614.726C857.278 613.915 857.157 613.112 857.012 612.317L856.164 612.55L855.311 614.167C855.223 614.332 855.18 614.486 855.182 614.628C855.186 614.766 855.241 614.895 855.348 615.017C855.434 615.121 855.522 615.211 855.611 615.288C855.7 615.365 855.809 615.443 855.938 615.522L855.697 615.978L852.353 614.213L852.594 613.757C852.705 613.804 852.82 613.853 852.94 613.904C853.063 613.951 853.169 613.984 853.26 614.002C853.41 614.029 853.545 614.009 853.663 613.941C853.783 613.869 853.887 613.751 853.975 613.585L858.155 605.667C858.245 605.497 858.292 605.319 858.296 605.132C858.307 604.944 858.276 604.78 858.202 604.641C858.144 604.516 858.018 604.388 857.823 604.255C857.632 604.125 857.477 604.023 857.358 603.948L857.591 603.506L860.197 604.678L860.239 604.833L856.434 612.039C856.983 611.869 857.573 611.689 858.204 611.498C858.842 611.304 859.389 611.122 859.845 610.95C859.903 610.928 859.971 610.896 860.046 610.854C860.129 610.809 860.181 610.766 860.203 610.724C860.268 610.6 860.216 610.454 860.045 610.287C859.878 610.123 859.709 609.981 859.537 609.86L859.77 609.418L862.769 611.001L862.543 611.429C862.095 611.34 861.675 611.304 861.283 611.321C860.899 611.336 860.591 611.371 860.362 611.427C860.203 611.46 859.967 611.527 859.655 611.628C859.343 611.728 858.916 611.85 858.375 611.994C858.507 612.659 858.636 613.44 858.763 614.337C858.895 615.237 858.992 615.889 859.055 616.294C859.115 616.673 859.203 616.946 859.32 617.114C859.438 617.282 859.646 617.457 859.945 617.638L859.704 618.094ZM878.639 616.182C878.507 616.119 878.29 616.051 877.986 615.979C877.683 615.907 877.454 615.877 877.3 615.89C877.073 615.918 876.844 616.079 876.611 616.375C876.383 616.673 876.137 617.073 875.872 617.575L872.082 624.753L871.481 624.435L869.774 613.278L867.104 618.335C866.805 618.901 866.61 619.355 866.518 619.695C866.431 620.038 866.428 620.313 866.507 620.52C866.559 620.677 866.728 620.887 867.014 621.149C867.299 621.412 867.494 621.574 867.597 621.634L867.338 622.125L863.317 620.002L863.576 619.511C863.706 619.568 863.938 619.635 864.274 619.712C864.613 619.785 864.836 619.808 864.944 619.783C865.173 619.739 865.387 619.601 865.585 619.37C865.786 619.135 866.056 618.697 866.394 618.057L868.943 613.228C869.055 613.016 869.13 612.784 869.169 612.534C869.207 612.283 869.194 612.067 869.13 611.886C869.045 611.647 868.887 611.399 868.658 611.142C868.435 610.883 868.239 610.703 868.069 610.601L868.328 610.111L871.126 611.588L872.692 621.974L875.154 617.311C875.456 616.74 875.65 616.283 875.737 615.94C875.826 615.592 875.828 615.331 875.743 615.157C875.661 615.001 875.494 614.804 875.243 614.566C874.996 614.33 874.8 614.167 874.652 614.077L874.911 613.587L878.898 615.692L878.639 616.182ZM882.818 625.854C882.565 626.333 882.239 626.765 881.842 627.15C881.447 627.53 881.024 627.807 880.572 627.981C880.06 628.182 879.547 628.261 879.033 628.22C878.519 628.178 878.002 628.02 877.481 627.745C877.048 627.516 876.679 627.218 876.372 626.85C876.068 626.478 875.847 626.055 875.708 625.581C875.572 625.114 875.531 624.612 875.584 624.075C875.645 623.536 875.822 622.99 876.113 622.438C876.675 621.374 877.443 620.666 878.418 620.315C879.397 619.966 880.389 620.057 881.393 620.587C882.346 621.09 882.961 621.827 883.238 622.798C883.522 623.767 883.382 624.785 882.818 625.854ZM881.38 625.112C881.563 624.767 881.72 624.385 881.853 623.966C881.988 623.543 882.057 623.161 882.06 622.821C882.063 622.458 881.99 622.127 881.841 621.831C881.694 621.529 881.447 621.287 881.102 621.105C880.747 620.918 880.397 620.845 880.051 620.886C879.71 620.93 879.381 621.062 879.064 621.283C878.768 621.486 878.496 621.752 878.246 622.08C877.997 622.407 877.783 622.739 877.606 623.075C877.372 623.517 877.19 623.946 877.06 624.36C876.937 624.772 876.875 625.166 876.876 625.544C876.877 625.921 876.95 626.257 877.095 626.552C877.247 626.844 877.498 627.083 877.848 627.267C878.424 627.571 879.027 627.533 879.658 627.154C880.288 626.774 880.862 626.093 881.38 625.112ZM895.483 628.839C895.28 628.755 895.027 628.725 894.726 628.749C894.43 628.775 894.156 628.904 893.904 629.136C893.316 629.691 892.758 630.218 892.23 630.717C891.708 631.213 891.122 631.772 890.47 632.394C890.26 632.59 890.039 632.803 889.805 633.033C889.577 633.265 889.361 633.49 889.158 633.707L888.564 633.393L889.381 627.411L884.888 631.453L884.322 631.153C884.516 629.949 884.713 628.757 884.911 627.577C885.117 626.396 885.29 625.366 885.43 624.486C885.471 624.23 885.421 623.986 885.279 623.752C885.137 623.518 884.976 623.339 884.795 623.213L885.035 622.757L888.075 624.362L887.82 624.846C887.665 624.77 887.486 624.708 887.282 624.659C887.083 624.613 886.955 624.643 886.899 624.749C886.89 624.767 886.876 624.81 886.858 624.877C886.845 624.947 886.832 625.022 886.818 625.103C886.71 625.665 886.59 626.294 886.458 626.99C886.334 627.683 886.167 628.585 885.958 629.694L890.289 625.708L890.952 626.058L890.174 631.832C890.698 631.319 891.209 630.826 891.706 630.352C892.211 629.877 892.671 629.424 893.085 628.995C893.181 628.893 893.268 628.8 893.347 628.718C893.432 628.634 893.501 628.543 893.552 628.447C893.596 628.364 893.598 628.271 893.558 628.167C893.518 628.064 893.457 627.963 893.373 627.866C893.3 627.781 893.213 627.699 893.112 627.623C893.016 627.548 892.943 627.498 892.892 627.471L893.125 627.029L895.716 628.397L895.483 628.839Z" fill="#05162C"/>
</g>
<g filter="url(#filter3_d_13001_2881)">
<rect x="12" y="402" width="166" height="32" rx="16" fill="#F5F6F7" shape-rendering="crispEdges"/>
<path d="M51.96 418.208C51.96 419.033 51.805 419.748 51.4951 420.354C51.1852 420.961 50.7819 421.457 50.2852 421.845C49.7839 422.232 49.221 422.521 48.5967 422.713C47.9723 422.904 47.3275 423 46.6621 423H42.6426V422.515C42.7747 422.515 42.9456 422.503 43.1553 422.48C43.3695 422.453 43.5107 422.424 43.5791 422.392C43.7158 422.332 43.8138 422.246 43.873 422.132C43.9368 422.013 43.9688 421.872 43.9688 421.708V414.708C43.9688 414.553 43.9414 414.414 43.8867 414.291C43.8366 414.168 43.734 414.07 43.5791 413.997C43.4378 413.929 43.2852 413.879 43.1211 413.847C42.957 413.815 42.8158 413.794 42.6973 413.785V413.3H46.9355C47.5189 413.3 48.0931 413.391 48.6582 413.573C49.2233 413.751 49.7155 413.993 50.1348 414.298C50.7044 414.703 51.151 415.234 51.4746 415.891C51.7982 416.547 51.96 417.319 51.96 418.208ZM50.2852 418.201C50.2852 417.549 50.1986 416.962 50.0254 416.438C49.8522 415.909 49.5993 415.449 49.2666 415.057C48.9521 414.683 48.5648 414.389 48.1045 414.175C47.6488 413.961 47.1406 413.854 46.5801 413.854C46.3932 413.854 46.1813 413.858 45.9443 413.867C45.7119 413.872 45.5387 413.876 45.4248 413.881V421.339C45.4248 421.754 45.5456 422.041 45.7871 422.2C46.0286 422.36 46.4001 422.439 46.9014 422.439C47.4801 422.439 47.986 422.337 48.4189 422.132C48.8519 421.927 49.2028 421.642 49.4717 421.277C49.7542 420.895 49.9593 420.452 50.0869 419.951C50.2191 419.445 50.2852 418.862 50.2852 418.201ZM59.5479 419.562C59.5479 420.035 59.4727 420.503 59.3223 420.963C59.1719 421.419 58.9577 421.806 58.6797 422.125C58.3652 422.49 58.0007 422.761 57.5859 422.938C57.1712 423.116 56.7064 423.205 56.1914 423.205C55.763 423.205 55.3551 423.125 54.9678 422.966C54.5804 422.802 54.2363 422.565 53.9355 422.255C53.6393 421.95 53.4023 421.578 53.2246 421.141C53.0514 420.699 52.9648 420.204 52.9648 419.657C52.9648 418.604 53.2702 417.743 53.8809 417.073C54.4961 416.403 55.3005 416.068 56.2939 416.068C57.2373 416.068 58.0143 416.387 58.625 417.025C59.2402 417.659 59.5479 418.504 59.5479 419.562ZM58.1328 419.575C58.1328 419.233 58.0986 418.873 58.0303 418.495C57.9619 418.112 57.8594 417.789 57.7227 417.524C57.5768 417.242 57.3854 417.016 57.1484 416.848C56.9115 416.674 56.6221 416.588 56.2803 416.588C55.9294 416.588 55.6286 416.674 55.3779 416.848C55.1318 417.021 54.9313 417.258 54.7764 417.559C54.6305 417.837 54.528 418.153 54.4688 418.509C54.4095 418.864 54.3799 419.208 54.3799 419.541C54.3799 419.979 54.4141 420.384 54.4824 420.758C54.5553 421.127 54.6693 421.457 54.8242 421.749C54.9792 422.041 55.1729 422.271 55.4053 422.439C55.6423 422.604 55.9339 422.686 56.2803 422.686C56.8499 422.686 57.3011 422.41 57.6338 421.858C57.9665 421.307 58.1328 420.546 58.1328 419.575ZM63.6426 423.178C62.6673 423.178 61.904 422.854 61.3525 422.207C60.8011 421.56 60.5254 420.692 60.5254 419.603C60.5254 419.129 60.5983 418.687 60.7441 418.276C60.8945 417.862 61.111 417.486 61.3936 417.148C61.6624 416.825 61.9997 416.565 62.4053 416.369C62.8109 416.169 63.2529 416.068 63.7314 416.068C64.3923 416.068 64.93 416.228 65.3447 416.547C65.7594 416.861 65.9668 417.292 65.9668 417.839C65.9668 418.067 65.9121 418.27 65.8027 418.447C65.6934 418.62 65.5133 418.707 65.2627 418.707C64.9938 418.707 64.7842 418.639 64.6338 418.502C64.488 418.365 64.415 418.213 64.415 418.044C64.415 417.839 64.4424 417.629 64.4971 417.415C64.5518 417.196 64.5837 417.037 64.5928 416.937C64.5107 416.795 64.3877 416.702 64.2236 416.656C64.0641 416.606 63.891 416.581 63.7041 416.581C63.4854 416.581 63.2757 416.629 63.0752 416.725C62.8792 416.816 62.6878 416.987 62.501 417.237C62.3324 417.465 62.1956 417.773 62.0908 418.16C61.986 418.548 61.9336 419.01 61.9336 419.548C61.9336 420.396 62.1204 421.088 62.4941 421.626C62.8724 422.159 63.3669 422.426 63.9775 422.426C64.4196 422.426 64.7887 422.319 65.085 422.104C65.3857 421.89 65.6637 421.569 65.9189 421.141L66.3564 421.428C66.0557 421.965 65.6592 422.392 65.167 422.706C64.6748 423.021 64.1667 423.178 63.6426 423.178ZM71.0459 422.706C70.7497 422.829 70.4694 422.932 70.2051 423.014C69.9408 423.1 69.6172 423.144 69.2344 423.144C68.6693 423.144 68.2705 423.002 68.0381 422.72C67.8102 422.433 67.6963 422.029 67.6963 421.51V416.943H66.4795V416.287H67.7236V414.188H68.9678V416.287H70.9023V416.943H68.9814V420.71C68.9814 420.993 68.9906 421.229 69.0088 421.421C69.0316 421.608 69.0817 421.772 69.1592 421.913C69.2321 422.045 69.3415 422.146 69.4873 422.214C69.6331 422.282 69.8291 422.316 70.0752 422.316C70.1891 422.316 70.3555 422.307 70.5742 422.289C70.7975 422.266 70.9548 422.239 71.0459 422.207V422.706ZM78.292 419.562C78.292 420.035 78.2168 420.503 78.0664 420.963C77.916 421.419 77.7018 421.806 77.4238 422.125C77.1094 422.49 76.7448 422.761 76.3301 422.938C75.9154 423.116 75.4505 423.205 74.9355 423.205C74.5072 423.205 74.0993 423.125 73.7119 422.966C73.3245 422.802 72.9805 422.565 72.6797 422.255C72.3835 421.95 72.1465 421.578 71.9688 421.141C71.7956 420.699 71.709 420.204 71.709 419.657C71.709 418.604 72.0143 417.743 72.625 417.073C73.2402 416.403 74.0446 416.068 75.0381 416.068C75.9814 416.068 76.7585 416.387 77.3691 417.025C77.9844 417.659 78.292 418.504 78.292 419.562ZM76.877 419.575C76.877 419.233 76.8428 418.873 76.7744 418.495C76.7061 418.112 76.6035 417.789 76.4668 417.524C76.321 417.242 76.1296 417.016 75.8926 416.848C75.6556 416.674 75.3662 416.588 75.0244 416.588C74.6735 416.588 74.3727 416.674 74.1221 416.848C73.876 417.021 73.6755 417.258 73.5205 417.559C73.3747 417.837 73.2721 418.153 73.2129 418.509C73.1536 418.864 73.124 419.208 73.124 419.541C73.124 419.979 73.1582 420.384 73.2266 420.758C73.2995 421.127 73.4134 421.457 73.5684 421.749C73.7233 422.041 73.917 422.271 74.1494 422.439C74.3864 422.604 74.6781 422.686 75.0244 422.686C75.5941 422.686 76.0452 422.41 76.3779 421.858C76.7106 421.307 76.877 420.546 76.877 419.575ZM84.4307 417.128C84.4307 417.36 84.3737 417.568 84.2598 417.75C84.1458 417.928 83.9704 418.017 83.7334 418.017C83.4782 418.017 83.2822 417.951 83.1455 417.818C83.0133 417.686 82.9473 417.54 82.9473 417.381C82.9473 417.281 82.9541 417.189 82.9678 417.107C82.986 417.025 83.002 416.943 83.0156 416.861C82.8014 416.861 82.5508 416.948 82.2637 417.121C81.9766 417.294 81.7327 417.54 81.5322 417.859V421.783C81.5322 421.943 81.5618 422.073 81.6211 422.173C81.6849 422.273 81.7829 422.348 81.915 422.398C82.029 422.444 82.1748 422.478 82.3525 422.501C82.5348 422.524 82.6921 422.54 82.8242 422.549V423H79.2695V422.549C79.3743 422.54 79.4814 422.531 79.5908 422.521C79.7048 422.512 79.8027 422.494 79.8848 422.467C80.0124 422.426 80.1058 422.355 80.165 422.255C80.2288 422.15 80.2607 422.016 80.2607 421.852V417.688C80.2607 417.547 80.2266 417.408 80.1582 417.271C80.0944 417.135 80.0033 417.025 79.8848 416.943C79.7982 416.889 79.6956 416.85 79.5771 416.827C79.4587 416.8 79.3311 416.782 79.1943 416.772V416.328L81.4365 416.178L81.5322 416.273V417.224H81.5664C81.849 416.854 82.1634 416.574 82.5098 416.383C82.8561 416.191 83.1729 416.096 83.46 416.096C83.7471 416.096 83.9795 416.189 84.1572 416.376C84.3395 416.563 84.4307 416.813 84.4307 417.128ZM89.4619 419.698C89.6488 419.862 89.7923 420.051 89.8926 420.266C89.9928 420.48 90.043 420.742 90.043 421.052C90.043 421.676 89.8083 422.187 89.3389 422.583C88.874 422.979 88.2702 423.178 87.5273 423.178C87.1354 423.178 86.7731 423.107 86.4404 422.966C86.1123 422.825 85.8776 422.695 85.7363 422.576L85.5996 423.021H85.0869L85.0186 420.676H85.4902C85.5267 420.854 85.6042 421.061 85.7227 421.298C85.8411 421.535 85.9847 421.749 86.1533 421.94C86.3311 422.141 86.543 422.31 86.7891 422.446C87.0397 422.583 87.32 422.651 87.6299 422.651C88.0674 422.651 88.4046 422.553 88.6416 422.357C88.8786 422.157 88.9971 421.872 88.9971 421.503C88.9971 421.312 88.9583 421.147 88.8809 421.011C88.8079 420.869 88.6986 420.746 88.5527 420.642C88.4023 420.537 88.2178 420.443 87.999 420.361C87.7803 420.275 87.5365 420.19 87.2676 420.108C87.0534 420.045 86.8141 419.958 86.5498 419.849C86.29 419.735 86.0667 419.603 85.8799 419.452C85.6794 419.293 85.5153 419.097 85.3877 418.864C85.2601 418.632 85.1963 418.358 85.1963 418.044C85.1963 417.493 85.4014 417.025 85.8115 416.643C86.2217 416.26 86.7708 416.068 87.459 416.068C87.7233 416.068 87.9922 416.103 88.2656 416.171C88.5436 416.239 88.7692 416.321 88.9424 416.417L89.0996 416.062H89.5918L89.6943 418.229H89.2227C89.127 417.745 88.9196 417.354 88.6006 417.053C88.2861 416.747 87.901 416.595 87.4453 416.595C87.0716 416.595 86.7777 416.688 86.5635 416.875C86.3493 417.062 86.2422 417.287 86.2422 417.552C86.2422 417.757 86.2764 417.928 86.3447 418.064C86.4176 418.201 86.5247 418.317 86.666 418.413C86.8027 418.504 86.9736 418.591 87.1787 418.673C87.3883 418.75 87.6458 418.839 87.9512 418.939C88.252 419.035 88.5345 419.147 88.7988 419.274C89.0677 419.402 89.2887 419.543 89.4619 419.698ZM101.89 423H98.5879V422.549C98.6927 422.54 98.8066 422.531 98.9297 422.521C99.0573 422.512 99.1621 422.494 99.2441 422.467C99.3717 422.426 99.4652 422.355 99.5244 422.255C99.5882 422.15 99.6201 422.016 99.6201 421.852V418.386C99.6201 417.907 99.5062 417.538 99.2783 417.278C99.055 417.019 98.7816 416.889 98.458 416.889C98.2165 416.889 97.9954 416.927 97.7949 417.005C97.5944 417.078 97.4167 417.169 97.2617 417.278C97.1113 417.383 96.9906 417.497 96.8994 417.62C96.8128 417.739 96.749 417.834 96.708 417.907V421.783C96.708 421.938 96.7399 422.066 96.8037 422.166C96.8675 422.266 96.9632 422.344 97.0908 422.398C97.1865 422.444 97.2891 422.478 97.3984 422.501C97.5124 422.524 97.6286 422.54 97.7471 422.549V423H94.4453V422.549C94.5501 422.54 94.6572 422.531 94.7666 422.521C94.8805 422.512 94.9785 422.494 95.0605 422.467C95.1882 422.426 95.2816 422.355 95.3408 422.255C95.4046 422.15 95.4365 422.016 95.4365 421.852V417.688C95.4365 417.534 95.4023 417.392 95.334 417.265C95.2702 417.132 95.179 417.025 95.0605 416.943C94.974 416.889 94.8714 416.85 94.7529 416.827C94.6344 416.8 94.5068 416.782 94.3701 416.772V416.328L96.6123 416.178L96.708 416.273V417.224H96.7422C96.8516 417.114 96.9883 416.984 97.1523 416.834C97.3164 416.679 97.4714 416.554 97.6172 416.458C97.7858 416.349 97.9863 416.257 98.2188 416.185C98.4512 416.112 98.7132 416.075 99.0049 416.075C99.652 416.075 100.131 416.278 100.44 416.684C100.755 417.085 100.912 417.62 100.912 418.29V421.797C100.912 421.956 100.939 422.086 100.994 422.187C101.049 422.282 101.142 422.357 101.274 422.412C101.384 422.458 101.477 422.49 101.555 422.508C101.637 422.526 101.748 422.54 101.89 422.549V423ZM108.705 421.414C108.423 421.952 108.044 422.38 107.57 422.699C107.096 423.018 106.552 423.178 105.937 423.178C105.394 423.178 104.918 423.082 104.508 422.891C104.102 422.699 103.767 422.439 103.503 422.111C103.239 421.783 103.04 421.4 102.908 420.963C102.781 420.525 102.717 420.063 102.717 419.575C102.717 419.138 102.785 418.709 102.922 418.29C103.063 417.866 103.268 417.486 103.537 417.148C103.797 416.825 104.118 416.565 104.501 416.369C104.888 416.169 105.321 416.068 105.8 416.068C106.292 416.068 106.714 416.146 107.064 416.301C107.415 416.456 107.7 416.668 107.919 416.937C108.129 417.192 108.284 417.493 108.384 417.839C108.489 418.185 108.541 418.561 108.541 418.967V419.418H104.077C104.077 419.86 104.118 420.261 104.2 420.621C104.287 420.981 104.421 421.298 104.604 421.571C104.781 421.836 105.014 422.045 105.301 422.2C105.588 422.351 105.93 422.426 106.326 422.426C106.732 422.426 107.08 422.332 107.372 422.146C107.668 421.954 107.953 421.612 108.227 421.12L108.705 421.414ZM107.194 418.844C107.194 418.589 107.172 418.315 107.126 418.023C107.085 417.732 107.017 417.488 106.921 417.292C106.816 417.082 106.673 416.911 106.49 416.779C106.308 416.647 106.073 416.581 105.786 416.581C105.308 416.581 104.909 416.782 104.59 417.183C104.275 417.579 104.104 418.133 104.077 418.844H107.194ZM115.869 422.877C115.655 422.954 115.466 423.016 115.302 423.062C115.142 423.112 114.96 423.137 114.755 423.137C114.399 423.137 114.115 423.055 113.9 422.891C113.691 422.722 113.556 422.478 113.497 422.159H113.456C113.16 422.487 112.841 422.738 112.499 422.911C112.162 423.084 111.754 423.171 111.275 423.171C110.77 423.171 110.353 423.016 110.024 422.706C109.701 422.396 109.539 421.991 109.539 421.489C109.539 421.229 109.576 420.997 109.648 420.792C109.721 420.587 109.831 420.402 109.977 420.238C110.09 420.102 110.241 419.981 110.428 419.876C110.615 419.767 110.79 419.68 110.954 419.616C111.159 419.539 111.574 419.395 112.198 419.186C112.827 418.976 113.251 418.812 113.47 418.693V418.017C113.47 417.957 113.456 417.843 113.429 417.675C113.406 417.506 113.354 417.347 113.271 417.196C113.18 417.028 113.05 416.882 112.882 416.759C112.718 416.631 112.483 416.567 112.178 416.567C111.968 416.567 111.772 416.604 111.59 416.677C111.412 416.745 111.287 416.818 111.214 416.896C111.214 416.987 111.234 417.121 111.275 417.299C111.321 417.477 111.344 417.641 111.344 417.791C111.344 417.951 111.271 418.096 111.125 418.229C110.984 418.361 110.785 418.427 110.53 418.427C110.302 418.427 110.134 418.347 110.024 418.188C109.92 418.023 109.867 417.841 109.867 417.641C109.867 417.431 109.94 417.23 110.086 417.039C110.236 416.848 110.43 416.677 110.667 416.526C110.872 416.399 111.12 416.292 111.412 416.205C111.704 416.114 111.989 416.068 112.267 416.068C112.649 416.068 112.982 416.096 113.265 416.15C113.552 416.201 113.812 416.312 114.044 416.485C114.276 416.654 114.452 416.884 114.57 417.176C114.693 417.463 114.755 417.834 114.755 418.29C114.755 418.942 114.748 419.521 114.734 420.026C114.721 420.528 114.714 421.077 114.714 421.674C114.714 421.852 114.743 421.993 114.803 422.098C114.867 422.202 114.962 422.291 115.09 422.364C115.158 422.405 115.265 422.428 115.411 422.433C115.562 422.437 115.714 422.439 115.869 422.439V422.877ZM113.483 419.268C113.096 419.382 112.757 419.493 112.465 419.603C112.173 419.712 111.902 419.849 111.651 420.013C111.424 420.168 111.243 420.352 111.111 420.566C110.979 420.776 110.913 421.027 110.913 421.318C110.913 421.697 111.011 421.975 111.207 422.152C111.408 422.33 111.66 422.419 111.966 422.419C112.289 422.419 112.574 422.341 112.82 422.187C113.066 422.027 113.274 421.84 113.442 421.626L113.483 419.268ZM121.7 417.128C121.7 417.36 121.643 417.568 121.529 417.75C121.415 417.928 121.24 418.017 121.003 418.017C120.748 418.017 120.552 417.951 120.415 417.818C120.283 417.686 120.217 417.54 120.217 417.381C120.217 417.281 120.224 417.189 120.237 417.107C120.256 417.025 120.271 416.943 120.285 416.861C120.071 416.861 119.82 416.948 119.533 417.121C119.246 417.294 119.002 417.54 118.802 417.859V421.783C118.802 421.943 118.831 422.073 118.891 422.173C118.954 422.273 119.052 422.348 119.185 422.398C119.299 422.444 119.444 422.478 119.622 422.501C119.804 422.524 119.962 422.54 120.094 422.549V423H116.539V422.549C116.644 422.54 116.751 422.531 116.86 422.521C116.974 422.512 117.072 422.494 117.154 422.467C117.282 422.426 117.375 422.355 117.435 422.255C117.498 422.15 117.53 422.016 117.53 421.852V417.688C117.53 417.547 117.496 417.408 117.428 417.271C117.364 417.135 117.273 417.025 117.154 416.943C117.068 416.889 116.965 416.85 116.847 416.827C116.728 416.8 116.601 416.782 116.464 416.772V416.328L118.706 416.178L118.802 416.273V417.224H118.836C119.118 416.854 119.433 416.574 119.779 416.383C120.126 416.191 120.442 416.096 120.729 416.096C121.017 416.096 121.249 416.189 121.427 416.376C121.609 416.563 121.7 416.813 121.7 417.128ZM125.146 425.201C125.146 424.973 125.207 424.786 125.33 424.641C125.458 424.499 125.615 424.429 125.802 424.429C125.948 424.429 126.073 424.456 126.178 424.511C126.283 424.565 126.376 424.636 126.458 424.723C126.526 424.791 126.599 424.884 126.677 425.003C126.754 425.121 126.816 425.219 126.861 425.297C127.089 425.174 127.36 424.853 127.675 424.333C127.994 423.813 128.224 423.358 128.365 422.966C127.932 421.886 127.54 420.92 127.189 420.067C126.839 419.215 126.472 418.333 126.089 417.422C126.002 417.212 125.856 417.05 125.651 416.937C125.446 416.818 125.241 416.743 125.036 416.711V416.26H128.112V416.738C127.976 416.743 127.812 416.772 127.62 416.827C127.429 416.877 127.333 416.937 127.333 417.005C127.333 417.032 127.342 417.078 127.36 417.142C127.383 417.205 127.408 417.271 127.436 417.34C127.609 417.791 127.873 418.443 128.229 419.295C128.584 420.143 128.86 420.822 129.056 421.332C129.261 420.844 129.473 420.341 129.691 419.821C129.915 419.297 130.163 418.68 130.437 417.969C130.468 417.882 130.514 417.764 130.573 417.613C130.632 417.458 130.662 417.326 130.662 417.217C130.662 417.098 130.557 416.989 130.348 416.889C130.143 416.784 129.947 416.72 129.76 416.697V416.26H132.262V416.684C132.125 416.706 131.945 416.786 131.722 416.923C131.498 417.055 131.332 417.244 131.223 417.49C130.68 418.748 130.197 419.894 129.773 420.929C129.354 421.963 129.035 422.724 128.816 423.212C128.529 423.85 128.272 424.347 128.044 424.702C127.821 425.062 127.602 425.345 127.388 425.55C127.178 425.741 126.987 425.869 126.813 425.933C126.645 426.001 126.469 426.035 126.287 426.035C125.932 426.035 125.651 425.951 125.446 425.782C125.246 425.614 125.146 425.42 125.146 425.201ZM139.118 419.562C139.118 420.035 139.043 420.503 138.893 420.963C138.742 421.419 138.528 421.806 138.25 422.125C137.936 422.49 137.571 422.761 137.156 422.938C136.742 423.116 136.277 423.205 135.762 423.205C135.333 423.205 134.925 423.125 134.538 422.966C134.151 422.802 133.807 422.565 133.506 422.255C133.21 421.95 132.973 421.578 132.795 421.141C132.622 420.699 132.535 420.204 132.535 419.657C132.535 418.604 132.84 417.743 133.451 417.073C134.066 416.403 134.871 416.068 135.864 416.068C136.808 416.068 137.585 416.387 138.195 417.025C138.811 417.659 139.118 418.504 139.118 419.562ZM137.703 419.575C137.703 419.233 137.669 418.873 137.601 418.495C137.532 418.112 137.43 417.789 137.293 417.524C137.147 417.242 136.956 417.016 136.719 416.848C136.482 416.674 136.192 416.588 135.851 416.588C135.5 416.588 135.199 416.674 134.948 416.848C134.702 417.021 134.502 417.258 134.347 417.559C134.201 417.837 134.098 418.153 134.039 418.509C133.98 418.864 133.95 419.208 133.95 419.541C133.95 419.979 133.984 420.384 134.053 420.758C134.126 421.127 134.24 421.457 134.395 421.749C134.549 422.041 134.743 422.271 134.976 422.439C135.213 422.604 135.504 422.686 135.851 422.686C136.42 422.686 136.871 422.41 137.204 421.858C137.537 421.307 137.703 420.546 137.703 419.575ZM147.321 422.877L145.127 423.027L145.024 422.932V422.077H144.983C144.874 422.191 144.751 422.314 144.614 422.446C144.478 422.574 144.32 422.69 144.143 422.795C143.938 422.918 143.739 423.011 143.548 423.075C143.356 423.139 143.085 423.171 142.734 423.171C142.137 423.171 141.682 422.977 141.367 422.59C141.057 422.198 140.902 421.631 140.902 420.888V417.661C140.902 417.497 140.87 417.36 140.807 417.251C140.747 417.137 140.659 417.039 140.54 416.957C140.458 416.902 140.355 416.864 140.232 416.841C140.109 416.813 139.979 416.795 139.843 416.786V416.342L142.092 416.178L142.194 416.273V420.956C142.194 421.444 142.304 421.811 142.522 422.057C142.741 422.303 143.003 422.426 143.309 422.426C143.559 422.426 143.783 422.387 143.979 422.31C144.174 422.232 144.339 422.141 144.471 422.036C144.594 421.94 144.701 421.84 144.792 421.735C144.888 421.626 144.961 421.526 145.011 421.435V417.613C145.011 417.463 144.979 417.331 144.915 417.217C144.851 417.098 144.762 416.998 144.648 416.916C144.566 416.861 144.443 416.829 144.279 416.82C144.12 416.807 143.94 416.795 143.739 416.786V416.342L146.187 416.178L146.289 416.273V421.626C146.289 421.781 146.321 421.913 146.385 422.022C146.449 422.132 146.537 422.225 146.651 422.303C146.733 422.353 146.831 422.387 146.945 422.405C147.059 422.419 147.185 422.428 147.321 422.433V422.877Z" fill="#05162C"/>
</g>
<defs>
<filter id="filter0_d_13001_2881" x="754.863" y="558.092" width="65.1664" height="58.2513" filterUnits="userSpaceOnUse" color-interpolation-filters="sRGB">
<feFlood flood-opacity="0" result="BackgroundImageFix"/>
<feColorMatrix in="SourceAlpha" type="matrix" values="0 0 0 0 0 0 0 0 0 0 0 0 0 0 0 0 0 0 127 0" result="hardAlpha"/>
<feOffset dy="6.51861"/>
<feGaussianBlur stdDeviation="7.7927"/>
<feComposite in2="hardAlpha" operator="out"/>
<feColorMatrix type="matrix" values="0 0 0 0 0 0 0 0 0 0 0 0 0 0 0 0 0 0 0.25 0"/>
<feBlend mode="normal" in2="BackgroundImageFix" result="effect1_dropShadow_13001_2881"/>
<feBlend mode="normal" in="SourceGraphic" in2="effect1_dropShadow_13001_2881" result="shape"/>
</filter>
<filter id="filter1_d_13001_2881" x="66.51" y="346.03" width="57.4258" height="67.4377" filterUnits="userSpaceOnUse" color-interpolation-filters="sRGB">
<feFlood flood-opacity="0" result="BackgroundImageFix"/>
<feColorMatrix in="SourceAlpha" type="matrix" values="0 0 0 0 0 0 0 0 0 0 0 0 0 0 0 0 0 0 127 0" result="hardAlpha"/>
<feOffset dy="6.52"/>
<feGaussianBlur stdDeviation="7.975"/>
<feComposite in2="hardAlpha" operator="out"/>
<feColorMatrix type="matrix" values="0 0 0 0 0 0 0 0 0 0 0 0 0 0 0 0 0 0 0.16 0"/>
<feBlend mode="normal" in2="BackgroundImageFix" result="effect1_dropShadow_13001_2881"/>
<feBlend mode="normal" in="SourceGraphic" in2="effect1_dropShadow_13001_2881" result="shape"/>
</filter>
<filter id="filter2_d_13001_2881" x="790" y="560" width="145.108" height="109.627" filterUnits="userSpaceOnUse" color-interpolation-filters="sRGB">
<feFlood flood-opacity="0" result="BackgroundImageFix"/>
<feColorMatrix in="SourceAlpha" type="matrix" values="0 0 0 0 0 0 0 0 0 0 0 0 0 0 0 0 0 0 127 0" result="hardAlpha"/>
<feOffset dy="2"/>
<feGaussianBlur stdDeviation="6"/>
<feComposite in2="hardAlpha" operator="out"/>
<feColorMatrix type="matrix" values="0 0 0 0 0 0 0 0 0 0 0 0 0 0 0 0 0 0 0.1 0"/>
<feBlend mode="normal" in2="BackgroundImageFix" result="effect1_dropShadow_13001_2881"/>
<feBlend mode="normal" in="SourceGraphic" in2="effect1_dropShadow_13001_2881" result="shape"/>
</filter>
<filter id="filter3_d_13001_2881" x="0" y="392" width="190" height="56" filterUnits="userSpaceOnUse" color-interpolation-filters="sRGB">
<feFlood flood-opacity="0" result="BackgroundImageFix"/>
<feColorMatrix in="SourceAlpha" type="matrix" values="0 0 0 0 0 0 0 0 0 0 0 0 0 0 0 0 0 0 127 0" result="hardAlpha"/>
<feOffset dy="2"/>
<feGaussianBlur stdDeviation="6"/>
<feComposite in2="hardAlpha" operator="out"/>
<feColorMatrix type="matrix" values="0 0 0 0 0 0 0 0 0 0 0 0 0 0 0 0 0 0 0.1 0"/>
<feBlend mode="normal" in2="BackgroundImageFix" result="effect1_dropShadow_13001_2881"/>
<feBlend mode="normal" in="SourceGraphic" in2="effect1_dropShadow_13001_2881" result="shape"/>
</filter>
</defs>
</svg>
