<svg width="256" height="262" viewBox="0 0 256 262" fill="none" xmlns="http://www.w3.org/2000/svg">
<path fill-rule="evenodd" clip-rule="evenodd" d="M99.4505 100.25C92.6071 103.378 87.5938 110.818 87.5938 119.691C87.5938 128.755 91.303 135.741 96.6204 141.729C101.003 146.664 106.308 150.754 111.482 154.743C112.711 155.69 113.932 156.632 115.132 157.578C117.302 159.288 119.238 160.79 121.104 161.88C122.97 162.971 124.473 163.469 125.75 163.469C127.027 163.469 128.53 162.971 130.396 161.88C132.262 160.79 134.198 159.288 136.368 157.578C137.568 156.632 138.789 155.69 140.018 154.743C145.192 150.754 150.497 146.664 154.88 141.729C160.197 135.741 163.906 128.755 163.906 119.691C163.906 110.818 158.893 103.378 152.05 100.25C145.401 97.2108 136.468 98.0156 127.979 106.836C127.396 107.441 126.591 107.784 125.75 107.784C124.909 107.784 124.104 107.441 123.521 106.836C115.032 98.0156 106.099 97.2108 99.4505 100.25ZM125.75 100.393C116.213 91.8597 105.533 90.6661 96.8781 94.6223C87.7369 98.8008 81.4062 108.503 81.4062 119.691C81.4062 130.686 85.987 139.074 91.994 145.838C96.8044 151.254 102.692 155.788 107.892 159.792C109.071 160.699 110.214 161.58 111.302 162.437C113.415 164.103 115.683 165.879 117.982 167.222C120.28 168.565 122.902 169.656 125.75 169.656C128.598 169.656 131.22 168.565 133.518 167.222C135.817 165.879 138.085 164.103 140.198 162.437C141.286 161.58 142.429 160.699 143.608 159.792C148.808 155.788 154.696 151.254 159.506 145.838C165.513 139.074 170.094 130.686 170.094 119.691C170.094 108.503 163.763 98.8008 154.622 94.6223C145.967 90.6661 135.287 91.8597 125.75 100.393Z" fill="#FC4B4E"/>
<path fill-rule="evenodd" clip-rule="evenodd" d="M154.123 13.2726C149.146 15.5475 145.5 20.9587 145.5 27.4113C145.5 34.0035 148.198 39.0847 152.065 43.4393C155.252 47.0283 159.111 50.0029 162.873 52.9038C163.767 53.5928 164.655 54.2777 165.528 54.9656C167.106 56.2097 168.514 57.3016 169.871 58.0944C171.228 58.8878 172.321 59.25 173.25 59.25C174.179 59.25 175.272 58.8878 176.629 58.0944C177.986 57.3016 179.394 56.2097 180.972 54.9656C181.845 54.2777 182.733 53.5928 183.627 52.9038C187.389 50.0029 191.248 47.0283 194.435 43.4393C198.302 39.0847 201 34.0035 201 27.4113C201 20.9587 197.354 15.5475 192.377 13.2726C187.542 11.0624 181.045 11.6477 174.871 18.0622C174.447 18.5029 173.862 18.7519 173.25 18.7519C172.638 18.7519 172.053 18.5029 171.629 18.0622C165.455 11.6477 158.958 11.0624 154.123 13.2726ZM173.25 13.3764C166.314 7.1707 158.547 6.30259 152.252 9.17986C145.604 12.2187 141 19.2751 141 27.4113C141 35.4079 144.331 41.5081 148.7 46.4274C152.199 50.3668 156.481 53.6638 160.262 56.5757C161.12 57.2358 161.951 57.8761 162.742 58.4996C164.279 59.711 165.929 61.0028 167.6 61.9797C169.272 62.9562 171.179 63.75 173.25 63.75C175.321 63.75 177.228 62.9562 178.9 61.9797C180.571 61.0028 182.221 59.711 183.758 58.4996C184.549 57.8761 185.38 57.2358 186.238 56.5757C190.019 53.6638 194.301 50.3668 197.8 46.4274C202.169 41.5081 205.5 35.4079 205.5 27.4113C205.5 19.2751 200.896 12.2187 194.248 9.17986C187.953 6.30259 180.186 7.1707 173.25 13.3764Z" fill="#FC4B4E"/>
<path fill-rule="evenodd" clip-rule="evenodd" d="M52.1392 53.1388C48.3373 54.8767 45.5521 59.0102 45.5521 63.9392C45.5521 68.9749 47.6128 72.8564 50.5669 76.1828C53.0017 78.9245 55.949 81.1967 58.8234 83.4127C59.5061 83.939 60.1847 84.4622 60.8514 84.9877C62.0568 85.938 63.1322 86.7721 64.1687 87.3778C65.2057 87.9838 66.0405 88.2605 66.75 88.2605C67.4595 88.2605 68.2943 87.9838 69.3313 87.3778C70.3678 86.7721 71.4432 85.938 72.6486 84.9877C73.3153 84.4622 73.9939 83.939 74.6766 83.4127C77.551 81.1967 80.4983 78.9245 82.9331 76.1828C85.8872 72.8564 87.9479 68.9749 87.9479 63.9392C87.9479 59.0102 85.1627 54.8767 81.3608 53.1388C77.6673 51.4505 72.7045 51.8976 67.9883 56.7976C67.6643 57.1342 67.2172 57.3244 66.75 57.3244C66.2828 57.3244 65.8357 57.1342 65.5117 56.7976C60.7955 51.8976 55.8327 51.4505 52.1392 53.1388ZM66.75 53.2182C61.4515 48.4777 55.5185 47.8145 50.7101 50.0125C45.6316 52.3338 42.1146 57.7241 42.1146 63.9392C42.1146 70.0477 44.6595 74.7077 47.9966 78.4654C50.6691 81.4747 53.9401 83.9933 56.829 86.2176C57.4838 86.7219 58.1191 87.211 58.7232 87.6873C59.8971 88.6126 61.1573 89.5994 62.4344 90.3457C63.7109 91.0916 65.1678 91.698 66.75 91.698C68.3322 91.698 69.7891 91.0916 71.0656 90.3457C72.3427 89.5994 73.6029 88.6126 74.7767 87.6873C75.3809 87.211 76.0162 86.7219 76.671 86.2176C79.5599 83.9933 82.8309 81.4747 85.5034 78.4654C88.8405 74.7077 91.3854 70.0477 91.3854 63.9392C91.3854 57.7241 87.8684 52.3338 82.7899 50.0125C77.9815 47.8145 72.0485 48.4777 66.75 53.2182Z" fill="#FC4B4E"/>
<rect x="200.25" y="96" width="10" height="7" rx="3.5" transform="rotate(-90 200.25 96)" fill="#FC4B4E"/>
<rect x="206.75" y="95.5" width="10" height="7" rx="3.5" fill="#FC4B4E"/>
<rect x="207.25" y="102" width="10" height="7" rx="3.5" transform="rotate(90 207.25 102)" fill="#FC4B4E"/>
<rect x="200.75" y="102.5" width="10" height="7" rx="3.5" transform="rotate(180 200.75 102.5)" fill="#FC4B4E"/>
<rect x="90.75" y="27" width="10" height="7" rx="3.5" transform="rotate(-90 90.75 27)" fill="#FC4B4E"/>
<rect x="97.25" y="26.5" width="10" height="7" rx="3.5" fill="#FC4B4E"/>
<rect x="97.75" y="33" width="10" height="7" rx="3.5" transform="rotate(90 97.75 33)" fill="#FC4B4E"/>
<rect x="91.25" y="33.5" width="10" height="7" rx="3.5" transform="rotate(180 91.25 33.5)" fill="#FC4B4E"/>
<rect x="50.75" y="136" width="10" height="7" rx="3.5" transform="rotate(-90 50.75 136)" fill="#FC4B4E"/>
<rect x="57.25" y="135.5" width="10" height="7" rx="3.5" fill="#FC4B4E"/>
<rect x="57.75" y="142" width="10" height="7" rx="3.5" transform="rotate(90 57.75 142)" fill="#FC4B4E"/>
<rect x="51.25" y="142.5" width="10" height="7" rx="3.5" transform="rotate(180 51.25 142.5)" fill="#FC4B4E"/>
<path d="M70.0859 211.203C69.9531 211.211 69.7422 211.266 69.4531 211.367C69.1641 211.461 68.957 211.555 68.832 211.648C68.5273 211.836 68.3203 211.98 68.2109 212.082C68.1016 212.184 67.8906 212.449 67.5781 212.879C66.9688 213.738 66.4062 214.609 65.8906 215.492C65.375 216.375 64.7305 217.496 63.957 218.855C63.668 219.355 63.4766 219.758 63.3828 220.062C63.2891 220.367 63.2422 220.809 63.2422 221.387V224.562C63.2422 224.844 63.2969 225.09 63.4062 225.301C63.5234 225.504 63.7188 225.668 63.9922 225.793C64.1562 225.855 64.4492 225.934 64.8711 226.027C65.293 226.113 65.6328 226.16 65.8906 226.168V227H58.1094V226.168C58.3281 226.152 58.6562 226.125 59.0938 226.086C59.5312 226.039 59.8359 225.98 60.0078 225.91C60.2891 225.793 60.4805 225.633 60.582 225.43C60.6914 225.227 60.7461 224.977 60.7461 224.68V220.637C60.7461 220.512 60.668 220.285 60.5117 219.957C60.3633 219.621 60.1836 219.25 59.9727 218.844C59.5039 217.938 58.9844 216.957 58.4141 215.902C57.8438 214.848 57.3477 213.945 56.9258 213.195C56.668 212.75 56.4375 212.414 56.2344 212.188C56.0391 211.961 55.8125 211.762 55.5547 211.59C55.3672 211.473 55.1406 211.383 54.875 211.32C54.6172 211.258 54.3828 211.219 54.1719 211.203V210.371H61.2617V211.203C60.4648 211.219 59.9023 211.273 59.5742 211.367C59.2461 211.461 59.082 211.594 59.082 211.766C59.082 211.812 59.1055 211.895 59.1523 212.012C59.1992 212.129 59.2656 212.277 59.3516 212.457C59.4531 212.66 59.5742 212.895 59.7148 213.16C59.8555 213.418 59.9883 213.668 60.1133 213.91C60.4805 214.605 60.8555 215.301 61.2383 215.996C61.6211 216.684 62.1211 217.582 62.7383 218.691C63.9648 216.715 64.8984 215.176 65.5391 214.074C66.1875 212.965 66.5117 212.301 66.5117 212.082C66.5117 211.902 66.4453 211.758 66.3125 211.648C66.1797 211.539 66.0039 211.453 65.7852 211.391C65.5586 211.328 65.3125 211.289 65.0469 211.273C64.7812 211.25 64.5352 211.227 64.3086 211.203V210.371H70.0859V211.203ZM81.5586 221.105C81.5586 221.918 81.4297 222.719 81.1719 223.508C80.9141 224.289 80.5469 224.953 80.0703 225.5C79.5312 226.125 78.9062 226.59 78.1953 226.895C77.4844 227.199 76.6875 227.352 75.8047 227.352C75.0703 227.352 74.3711 227.215 73.707 226.941C73.043 226.66 72.4531 226.254 71.9375 225.723C71.4297 225.199 71.0234 224.562 70.7188 223.812C70.4219 223.055 70.2734 222.207 70.2734 221.27C70.2734 219.465 70.7969 217.988 71.8438 216.84C72.8984 215.691 74.2773 215.117 75.9805 215.117C77.5977 215.117 78.9297 215.664 79.9766 216.758C81.0312 217.844 81.5586 219.293 81.5586 221.105ZM79.1328 221.129C79.1328 220.543 79.0742 219.926 78.957 219.277C78.8398 218.621 78.6641 218.066 78.4297 217.613C78.1797 217.129 77.8516 216.742 77.4453 216.453C77.0391 216.156 76.543 216.008 75.957 216.008C75.3555 216.008 74.8398 216.156 74.4102 216.453C73.9883 216.75 73.6445 217.156 73.3789 217.672C73.1289 218.148 72.9531 218.691 72.8516 219.301C72.75 219.91 72.6992 220.5 72.6992 221.07C72.6992 221.82 72.7578 222.516 72.875 223.156C73 223.789 73.1953 224.355 73.4609 224.855C73.7266 225.355 74.0586 225.75 74.457 226.039C74.8633 226.32 75.3633 226.461 75.957 226.461C76.9336 226.461 77.707 225.988 78.2773 225.043C78.8477 224.098 79.1328 222.793 79.1328 221.129ZM95.6211 226.789L91.8594 227.047L91.6836 226.883V225.418H91.6133C91.4258 225.613 91.2148 225.824 90.9805 226.051C90.7461 226.27 90.4766 226.469 90.1719 226.648C89.8203 226.859 89.4805 227.02 89.1523 227.129C88.8242 227.238 88.3594 227.293 87.7578 227.293C86.7344 227.293 85.9531 226.961 85.4141 226.297C84.8828 225.625 84.6172 224.652 84.6172 223.379V217.848C84.6172 217.566 84.5625 217.332 84.4531 217.145C84.3516 216.949 84.1992 216.781 83.9961 216.641C83.8555 216.547 83.6797 216.48 83.4688 216.441C83.2578 216.395 83.0352 216.363 82.8008 216.348V215.586L86.6562 215.305L86.832 215.469V223.496C86.832 224.332 87.0195 224.961 87.3945 225.383C87.7695 225.805 88.2188 226.016 88.7422 226.016C89.1719 226.016 89.5547 225.949 89.8906 225.816C90.2266 225.684 90.5078 225.527 90.7344 225.348C90.9453 225.184 91.1289 225.012 91.2852 224.832C91.4492 224.645 91.5742 224.473 91.6602 224.316V217.766C91.6602 217.508 91.6055 217.281 91.4961 217.086C91.3867 216.883 91.2344 216.711 91.0391 216.57C90.8984 216.477 90.6875 216.422 90.4062 216.406C90.1328 216.383 89.8242 216.363 89.4805 216.348V215.586L93.6758 215.305L93.8516 215.469V224.645C93.8516 224.91 93.9062 225.137 94.0156 225.324C94.125 225.512 94.2773 225.672 94.4727 225.805C94.6133 225.891 94.7812 225.949 94.9766 225.98C95.1719 226.004 95.3867 226.02 95.6211 226.027V226.789ZM105.887 216.934C105.887 217.332 105.789 217.688 105.594 218C105.398 218.305 105.098 218.457 104.691 218.457C104.254 218.457 103.918 218.344 103.684 218.117C103.457 217.891 103.344 217.641 103.344 217.367C103.344 217.195 103.355 217.039 103.379 216.898C103.41 216.758 103.438 216.617 103.461 216.477C103.094 216.477 102.664 216.625 102.172 216.922C101.68 217.219 101.262 217.641 100.918 218.188V224.914C100.918 225.188 100.969 225.41 101.07 225.582C101.18 225.754 101.348 225.883 101.574 225.969C101.77 226.047 102.02 226.105 102.324 226.145C102.637 226.184 102.906 226.211 103.133 226.227V227H97.0391V226.227C97.2188 226.211 97.4023 226.195 97.5898 226.18C97.7852 226.164 97.9531 226.133 98.0938 226.086C98.3125 226.016 98.4727 225.895 98.5742 225.723C98.6836 225.543 98.7383 225.312 98.7383 225.031V217.895C98.7383 217.652 98.6797 217.414 98.5625 217.18C98.4531 216.945 98.2969 216.758 98.0938 216.617C97.9453 216.523 97.7695 216.457 97.5664 216.418C97.3633 216.371 97.1445 216.34 96.9102 216.324V215.562L100.754 215.305L100.918 215.469V217.098H100.977C101.461 216.465 102 215.984 102.594 215.656C103.188 215.328 103.73 215.164 104.223 215.164C104.715 215.164 105.113 215.324 105.418 215.645C105.73 215.965 105.887 216.395 105.887 216.934ZM121.273 210.254C121.273 210.605 121.18 210.902 120.992 211.145C120.805 211.387 120.52 211.508 120.137 211.508C119.895 211.508 119.68 211.457 119.492 211.355C119.312 211.254 119.145 211.117 118.988 210.945C118.832 210.773 118.688 210.578 118.555 210.359C118.422 210.141 118.309 209.965 118.215 209.832C117.691 209.855 117.285 210.223 116.996 210.934C116.715 211.637 116.574 212.762 116.574 214.309V215.492H119.551V216.617H116.574V224.914C116.574 225.188 116.625 225.41 116.727 225.582C116.836 225.754 117.004 225.883 117.23 225.969C117.418 226.039 117.668 226.098 117.98 226.145C118.293 226.184 118.562 226.211 118.789 226.227V227H112.695V226.227C112.875 226.211 113.059 226.195 113.246 226.18C113.441 226.164 113.609 226.133 113.75 226.086C113.969 226.016 114.129 225.895 114.23 225.723C114.34 225.543 114.395 225.312 114.395 225.031V216.617H112.109V215.492H114.395V214.754C114.395 212.996 114.848 211.574 115.754 210.488C116.668 209.395 117.809 208.848 119.176 208.848C119.871 208.848 120.395 208.984 120.746 209.258C121.098 209.531 121.273 209.863 121.273 210.254ZM131.422 226.789C131.055 226.922 130.73 227.027 130.449 227.105C130.176 227.191 129.863 227.234 129.512 227.234C128.902 227.234 128.414 227.094 128.047 226.812C127.688 226.523 127.457 226.105 127.355 225.559H127.285C126.777 226.121 126.23 226.551 125.645 226.848C125.066 227.145 124.367 227.293 123.547 227.293C122.68 227.293 121.965 227.027 121.402 226.496C120.848 225.965 120.57 225.27 120.57 224.41C120.57 223.965 120.633 223.566 120.758 223.215C120.883 222.863 121.07 222.547 121.32 222.266C121.516 222.031 121.773 221.824 122.094 221.645C122.414 221.457 122.715 221.309 122.996 221.199C123.348 221.066 124.059 220.82 125.129 220.461C126.207 220.102 126.934 219.82 127.309 219.617V218.457C127.309 218.355 127.285 218.16 127.238 217.871C127.199 217.582 127.109 217.309 126.969 217.051C126.812 216.762 126.59 216.512 126.301 216.301C126.02 216.082 125.617 215.973 125.094 215.973C124.734 215.973 124.398 216.035 124.086 216.16C123.781 216.277 123.566 216.402 123.441 216.535C123.441 216.691 123.477 216.922 123.547 217.227C123.625 217.531 123.664 217.812 123.664 218.07C123.664 218.344 123.539 218.594 123.289 218.82C123.047 219.047 122.707 219.16 122.27 219.16C121.879 219.16 121.59 219.023 121.402 218.75C121.223 218.469 121.133 218.156 121.133 217.812C121.133 217.453 121.258 217.109 121.508 216.781C121.766 216.453 122.098 216.16 122.504 215.902C122.855 215.684 123.281 215.5 123.781 215.352C124.281 215.195 124.77 215.117 125.246 215.117C125.902 215.117 126.473 215.164 126.957 215.258C127.449 215.344 127.895 215.535 128.293 215.832C128.691 216.121 128.992 216.516 129.195 217.016C129.406 217.508 129.512 218.145 129.512 218.926C129.512 220.043 129.5 221.035 129.477 221.902C129.453 222.762 129.441 223.703 129.441 224.727C129.441 225.031 129.492 225.273 129.594 225.453C129.703 225.633 129.867 225.785 130.086 225.91C130.203 225.98 130.387 226.02 130.637 226.027C130.895 226.035 131.156 226.039 131.422 226.039V226.789ZM127.332 220.602C126.668 220.797 126.086 220.988 125.586 221.176C125.086 221.363 124.621 221.598 124.191 221.879C123.801 222.145 123.492 222.461 123.266 222.828C123.039 223.188 122.926 223.617 122.926 224.117C122.926 224.766 123.094 225.242 123.43 225.547C123.773 225.852 124.207 226.004 124.73 226.004C125.285 226.004 125.773 225.871 126.195 225.605C126.617 225.332 126.973 225.012 127.262 224.645L127.332 220.602ZM143.984 216.16C143.633 216.223 143.297 216.352 142.977 216.547C142.664 216.734 142.395 217.07 142.168 217.555C141.707 218.602 141.23 219.695 140.738 220.836C140.246 221.969 139.734 223.16 139.203 224.41C139.047 224.77 138.879 225.195 138.699 225.688C138.527 226.18 138.367 226.652 138.219 227.105H137.305C136.562 225.27 135.879 223.598 135.254 222.09C134.629 220.574 133.98 219.023 133.309 217.438C133.152 217.078 132.898 216.801 132.547 216.605C132.203 216.402 131.855 216.273 131.504 216.219V215.445H136.848V216.266C136.613 216.273 136.32 216.324 135.969 216.418C135.617 216.504 135.441 216.625 135.441 216.781C135.441 216.805 135.461 216.867 135.5 216.969C135.539 217.062 135.578 217.172 135.617 217.297C135.938 218.094 136.391 219.207 136.977 220.637C137.562 222.066 138.039 223.219 138.406 224.094C138.688 223.422 139.039 222.586 139.461 221.586C139.891 220.586 140.352 219.469 140.844 218.234C140.922 218.023 140.996 217.828 141.066 217.648C141.137 217.461 141.172 217.273 141.172 217.086C141.172 216.953 141.105 216.836 140.973 216.734C140.848 216.625 140.695 216.531 140.516 216.453C140.336 216.375 140.16 216.316 139.988 216.277C139.816 216.238 139.676 216.211 139.566 216.195V215.445H143.984V216.16ZM155.762 221.105C155.762 221.918 155.633 222.719 155.375 223.508C155.117 224.289 154.75 224.953 154.273 225.5C153.734 226.125 153.109 226.59 152.398 226.895C151.688 227.199 150.891 227.352 150.008 227.352C149.273 227.352 148.574 227.215 147.91 226.941C147.246 226.66 146.656 226.254 146.141 225.723C145.633 225.199 145.227 224.562 144.922 223.812C144.625 223.055 144.477 222.207 144.477 221.27C144.477 219.465 145 217.988 146.047 216.84C147.102 215.691 148.48 215.117 150.184 215.117C151.801 215.117 153.133 215.664 154.18 216.758C155.234 217.844 155.762 219.293 155.762 221.105ZM153.336 221.129C153.336 220.543 153.277 219.926 153.16 219.277C153.043 218.621 152.867 218.066 152.633 217.613C152.383 217.129 152.055 216.742 151.648 216.453C151.242 216.156 150.746 216.008 150.16 216.008C149.559 216.008 149.043 216.156 148.613 216.453C148.191 216.75 147.848 217.156 147.582 217.672C147.332 218.148 147.156 218.691 147.055 219.301C146.953 219.91 146.902 220.5 146.902 221.07C146.902 221.82 146.961 222.516 147.078 223.156C147.203 223.789 147.398 224.355 147.664 224.855C147.93 225.355 148.262 225.75 148.66 226.039C149.066 226.32 149.566 226.461 150.16 226.461C151.137 226.461 151.91 225.988 152.48 225.043C153.051 224.098 153.336 222.793 153.336 221.129ZM166.285 216.934C166.285 217.332 166.188 217.688 165.992 218C165.797 218.305 165.496 218.457 165.09 218.457C164.652 218.457 164.316 218.344 164.082 218.117C163.855 217.891 163.742 217.641 163.742 217.367C163.742 217.195 163.754 217.039 163.777 216.898C163.809 216.758 163.836 216.617 163.859 216.477C163.492 216.477 163.062 216.625 162.57 216.922C162.078 217.219 161.66 217.641 161.316 218.188V224.914C161.316 225.188 161.367 225.41 161.469 225.582C161.578 225.754 161.746 225.883 161.973 225.969C162.168 226.047 162.418 226.105 162.723 226.145C163.035 226.184 163.305 226.211 163.531 226.227V227H157.438V226.227C157.617 226.211 157.801 226.195 157.988 226.18C158.184 226.164 158.352 226.133 158.492 226.086C158.711 226.016 158.871 225.895 158.973 225.723C159.082 225.543 159.137 225.312 159.137 225.031V217.895C159.137 217.652 159.078 217.414 158.961 217.18C158.852 216.945 158.695 216.758 158.492 216.617C158.344 216.523 158.168 216.457 157.965 216.418C157.762 216.371 157.543 216.34 157.309 216.324V215.562L161.152 215.305L161.316 215.469V217.098H161.375C161.859 216.465 162.398 215.984 162.992 215.656C163.586 215.328 164.129 215.164 164.621 215.164C165.113 215.164 165.512 215.324 165.816 215.645C166.129 215.965 166.285 216.395 166.285 216.934ZM172.895 227H167.305V226.227C167.484 226.211 167.668 226.195 167.855 226.18C168.051 226.164 168.219 226.133 168.359 226.086C168.578 226.016 168.738 225.895 168.84 225.723C168.949 225.543 169.004 225.312 169.004 225.031V217.895C169.004 217.645 168.945 217.418 168.828 217.215C168.719 217.004 168.562 216.828 168.359 216.688C168.211 216.594 167.996 216.516 167.715 216.453C167.434 216.383 167.176 216.34 166.941 216.324V215.562L171.02 215.305L171.184 215.469V224.891C171.184 225.164 171.234 225.391 171.336 225.57C171.445 225.75 171.613 225.883 171.84 225.969C172.012 226.039 172.18 226.098 172.344 226.145C172.508 226.184 172.691 226.211 172.895 226.227V227ZM171.418 210.746C171.418 211.191 171.27 211.582 170.973 211.918C170.684 212.246 170.324 212.41 169.895 212.41C169.496 212.41 169.148 212.254 168.852 211.941C168.562 211.621 168.418 211.258 168.418 210.852C168.418 210.422 168.562 210.047 168.852 209.727C169.148 209.406 169.496 209.246 169.895 209.246C170.34 209.246 170.703 209.398 170.984 209.703C171.273 210 171.418 210.348 171.418 210.746ZM181.449 226.496C180.941 226.707 180.461 226.883 180.008 227.023C179.555 227.172 179 227.246 178.344 227.246C177.375 227.246 176.691 227.004 176.293 226.52C175.902 226.027 175.707 225.336 175.707 224.445V216.617H173.621V215.492H175.754V211.895H177.887V215.492H181.203V216.617H177.91V223.074C177.91 223.559 177.926 223.965 177.957 224.293C177.996 224.613 178.082 224.895 178.215 225.137C178.34 225.363 178.527 225.535 178.777 225.652C179.027 225.77 179.363 225.828 179.785 225.828C179.98 225.828 180.266 225.812 180.641 225.781C181.023 225.742 181.293 225.695 181.449 225.641V226.496ZM192.875 224.281C192.391 225.203 191.742 225.938 190.93 226.484C190.117 227.031 189.184 227.305 188.129 227.305C187.199 227.305 186.383 227.141 185.68 226.812C184.984 226.484 184.41 226.039 183.957 225.477C183.504 224.914 183.164 224.258 182.938 223.508C182.719 222.758 182.609 221.965 182.609 221.129C182.609 220.379 182.727 219.645 182.961 218.926C183.203 218.199 183.555 217.547 184.016 216.969C184.461 216.414 185.012 215.969 185.668 215.633C186.332 215.289 187.074 215.117 187.895 215.117C188.738 215.117 189.461 215.25 190.062 215.516C190.664 215.781 191.152 216.145 191.527 216.605C191.887 217.043 192.152 217.559 192.324 218.152C192.504 218.746 192.594 219.391 192.594 220.086V220.859H184.941C184.941 221.617 185.012 222.305 185.152 222.922C185.301 223.539 185.531 224.082 185.844 224.551C186.148 225.004 186.547 225.363 187.039 225.629C187.531 225.887 188.117 226.016 188.797 226.016C189.492 226.016 190.09 225.855 190.59 225.535C191.098 225.207 191.586 224.621 192.055 223.777L192.875 224.281ZM190.285 219.875C190.285 219.438 190.246 218.969 190.168 218.469C190.098 217.969 189.98 217.551 189.816 217.215C189.637 216.855 189.391 216.562 189.078 216.336C188.766 216.109 188.363 215.996 187.871 215.996C187.051 215.996 186.367 216.34 185.82 217.027C185.281 217.707 184.988 218.656 184.941 219.875H190.285ZM198.898 211.52C198.898 211.91 198.77 213.223 198.512 215.457C198.254 217.691 198.027 219.852 197.832 221.938H196.918C196.746 219.852 196.531 217.691 196.273 215.457C196.023 213.223 195.898 211.91 195.898 211.52C195.898 211.074 196.039 210.699 196.32 210.395C196.602 210.09 196.961 209.938 197.398 209.938C197.836 209.938 198.195 210.09 198.477 210.395C198.758 210.691 198.898 211.066 198.898 211.52ZM199.004 225.652C199.004 226.09 198.844 226.465 198.523 226.777C198.211 227.082 197.836 227.234 197.398 227.234C196.961 227.234 196.582 227.082 196.262 226.777C195.949 226.465 195.793 226.09 195.793 225.652C195.793 225.215 195.949 224.84 196.262 224.527C196.582 224.207 196.961 224.047 197.398 224.047C197.836 224.047 198.211 224.207 198.523 224.527C198.844 224.84 199.004 225.215 199.004 225.652Z" fill="black"/>
<path d="M0.032 258L5.152 246.8H6.32L11.44 258H10.192L5.488 247.488H5.968L1.264 258H0.032ZM2.048 255.008L2.4 254.048H8.912L9.264 255.008H2.048ZM16.3186 258.08C15.5186 258.08 14.7986 257.899 14.1586 257.536C13.5293 257.173 13.0333 256.672 12.6706 256.032C12.308 255.381 12.1266 254.635 12.1266 253.792C12.1266 252.939 12.308 252.192 12.6706 251.552C13.0333 250.912 13.5293 250.416 14.1586 250.064C14.7986 249.701 15.5186 249.52 16.3186 249.52C17.0546 249.52 17.7106 249.685 18.2866 250.016C18.8733 250.347 19.3373 250.832 19.6786 251.472C20.0306 252.101 20.2066 252.875 20.2066 253.792C20.2066 254.699 20.036 255.472 19.6946 256.112C19.3533 256.752 18.8893 257.243 18.3026 257.584C17.7266 257.915 17.0653 258.08 16.3186 258.08ZM16.3986 257.072C16.996 257.072 17.5293 256.939 17.9986 256.672C18.4786 256.395 18.852 256.011 19.1186 255.52C19.396 255.019 19.5346 254.443 19.5346 253.792C19.5346 253.131 19.396 252.555 19.1186 252.064C18.852 251.573 18.4786 251.195 17.9986 250.928C17.5293 250.651 16.996 250.512 16.3986 250.512C15.812 250.512 15.284 250.651 14.8146 250.928C14.3453 251.195 13.972 251.573 13.6946 252.064C13.4173 252.555 13.2786 253.131 13.2786 253.792C13.2786 254.443 13.4173 255.019 13.6946 255.52C13.972 256.011 14.3453 256.395 14.8146 256.672C15.284 256.939 15.812 257.072 16.3986 257.072ZM19.5666 258V255.472L19.6786 253.776L19.5186 252.08V246.128H20.6546V258H19.5666ZM27.1624 258.08C26.3624 258.08 25.6424 257.899 25.0024 257.536C24.373 257.173 23.877 256.672 23.5144 256.032C23.1517 255.381 22.9704 254.635 22.9704 253.792C22.9704 252.939 23.1517 252.192 23.5144 251.552C23.877 250.912 24.373 250.416 25.0024 250.064C25.6424 249.701 26.3624 249.52 27.1624 249.52C27.8984 249.52 28.5544 249.685 29.1304 250.016C29.717 250.347 30.181 250.832 30.5224 251.472C30.8744 252.101 31.0504 252.875 31.0504 253.792C31.0504 254.699 30.8797 255.472 30.5384 256.112C30.197 256.752 29.733 257.243 29.1464 257.584C28.5704 257.915 27.909 258.08 27.1624 258.08ZM27.2424 257.072C27.8397 257.072 28.373 256.939 28.8424 256.672C29.3224 256.395 29.6957 256.011 29.9624 255.52C30.2397 255.019 30.3784 254.443 30.3784 253.792C30.3784 253.131 30.2397 252.555 29.9624 252.064C29.6957 251.573 29.3224 251.195 28.8424 250.928C28.373 250.651 27.8397 250.512 27.2424 250.512C26.6557 250.512 26.1277 250.651 25.6584 250.928C25.189 251.195 24.8157 251.573 24.5384 252.064C24.261 252.555 24.1224 253.131 24.1224 253.792C24.1224 254.443 24.261 255.019 24.5384 255.52C24.8157 256.011 25.189 256.395 25.6584 256.672C26.1277 256.939 26.6557 257.072 27.2424 257.072ZM30.4104 258V255.472L30.5224 253.776L30.3624 252.08V246.128H31.4984V258H30.4104ZM38.9136 261.184C38.519 261.184 38.1403 261.12 37.7776 260.992C37.4256 260.864 37.1216 260.672 36.8656 260.416L37.3936 259.568C37.607 259.771 37.8363 259.925 38.0816 260.032C38.3376 260.149 38.6203 260.208 38.9296 260.208C39.303 260.208 39.623 260.101 39.8896 259.888C40.167 259.685 40.4283 259.323 40.6736 258.8L41.2176 257.568L41.3456 257.392L44.8016 249.6H45.9216L41.7136 259.008C41.479 259.552 41.2176 259.984 40.9296 260.304C40.6523 260.624 40.3483 260.848 40.0176 260.976C39.687 261.115 39.319 261.184 38.9136 261.184ZM41.1536 258.24L37.2816 249.6H38.4656L41.8896 257.312L41.1536 258.24ZM50.7111 258.08C49.9005 258.08 49.1698 257.899 48.5191 257.536C47.8791 257.163 47.3725 256.656 46.9991 256.016C46.6258 255.365 46.4391 254.624 46.4391 253.792C46.4391 252.949 46.6258 252.208 46.9991 251.568C47.3725 250.928 47.8791 250.427 48.5191 250.064C49.1591 249.701 49.8898 249.52 50.7111 249.52C51.5431 249.52 52.2791 249.701 52.9191 250.064C53.5698 250.427 54.0765 250.928 54.4391 251.568C54.8125 252.208 54.9991 252.949 54.9991 253.792C54.9991 254.624 54.8125 255.365 54.4391 256.016C54.0765 256.656 53.5698 257.163 52.9191 257.536C52.2685 257.899 51.5325 258.08 50.7111 258.08ZM50.7111 257.072C51.3191 257.072 51.8578 256.939 52.3271 256.672C52.7965 256.395 53.1645 256.011 53.4311 255.52C53.7085 255.019 53.8471 254.443 53.8471 253.792C53.8471 253.131 53.7085 252.555 53.4311 252.064C53.1645 251.573 52.7965 251.195 52.3271 250.928C51.8578 250.651 51.3245 250.512 50.7271 250.512C50.1298 250.512 49.5965 250.651 49.1271 250.928C48.6578 251.195 48.2845 251.573 48.0071 252.064C47.7298 252.555 47.5911 253.131 47.5911 253.792C47.5911 254.443 47.7298 255.019 48.0071 255.52C48.2845 256.011 48.6578 256.395 49.1271 256.672C49.5965 256.939 50.1245 257.072 50.7111 257.072ZM60.7904 258.08C60.0757 258.08 59.4517 257.947 58.9184 257.68C58.385 257.413 57.969 257.013 57.6704 256.48C57.3824 255.947 57.2384 255.28 57.2384 254.48V249.6H58.3744V254.352C58.3744 255.248 58.593 255.925 59.0304 256.384C59.4784 256.832 60.1024 257.056 60.9024 257.056C61.489 257.056 61.9957 256.939 62.4224 256.704C62.8597 256.459 63.1904 256.107 63.4144 255.648C63.649 255.189 63.7664 254.64 63.7664 254V249.6H64.9024V258H63.8144V255.696L63.9904 256.112C63.7237 256.731 63.3077 257.216 62.7424 257.568C62.1877 257.909 61.537 258.08 60.7904 258.08ZM68.0684 258V249.6H69.1564V251.888L69.0444 251.488C69.279 250.848 69.6737 250.363 70.2284 250.032C70.783 249.691 71.471 249.52 72.2924 249.52V250.624C72.2497 250.624 72.207 250.624 72.1644 250.624C72.1217 250.613 72.079 250.608 72.0364 250.608C71.151 250.608 70.4577 250.88 69.9564 251.424C69.455 251.957 69.2044 252.72 69.2044 253.712V258H68.0684ZM78.8698 258V248.544C78.8698 247.797 79.0884 247.195 79.5258 246.736C79.9631 246.277 80.5924 246.048 81.4138 246.048C81.7338 246.048 82.0431 246.091 82.3418 246.176C82.6404 246.261 82.8911 246.395 83.0938 246.576L82.7098 247.424C82.5498 247.285 82.3631 247.184 82.1498 247.12C81.9364 247.045 81.7071 247.008 81.4618 247.008C80.9818 247.008 80.6138 247.141 80.3578 247.408C80.1018 247.675 79.9738 248.069 79.9738 248.592V249.872L80.0058 250.4V258H78.8698ZM77.3658 250.544V249.6H82.5658V250.544H77.3658ZM89.2074 258V256.144L89.1594 255.84V252.736C89.1594 252.021 88.9567 251.472 88.5514 251.088C88.1567 250.704 87.5647 250.512 86.7754 250.512C86.2314 250.512 85.714 250.603 85.2234 250.784C84.7327 250.965 84.3167 251.205 83.9754 251.504L83.4634 250.656C83.89 250.293 84.402 250.016 84.9994 249.824C85.5967 249.621 86.226 249.52 86.8874 249.52C87.9754 249.52 88.8127 249.792 89.3994 250.336C89.9967 250.869 90.2954 251.685 90.2954 252.784V258H89.2074ZM86.3114 258.08C85.682 258.08 85.1327 257.979 84.6634 257.776C84.2047 257.563 83.8527 257.275 83.6074 256.912C83.362 256.539 83.2394 256.112 83.2394 255.632C83.2394 255.195 83.3407 254.8 83.5434 254.448C83.7567 254.085 84.098 253.797 84.5674 253.584C85.0474 253.36 85.6874 253.248 86.4874 253.248H89.3834V254.096H86.5194C85.7087 254.096 85.1434 254.24 84.8234 254.528C84.514 254.816 84.3594 255.173 84.3594 255.6C84.3594 256.08 84.546 256.464 84.9194 256.752C85.2927 257.04 85.8154 257.184 86.4874 257.184C87.1274 257.184 87.6767 257.04 88.1354 256.752C88.6047 256.453 88.946 256.027 89.1594 255.472L89.4154 256.256C89.202 256.811 88.8287 257.253 88.2954 257.584C87.7727 257.915 87.1114 258.08 86.3114 258.08ZM95.3846 258L91.6566 249.6H92.8406L96.2646 257.392H95.7046L99.1766 249.6H100.297L96.5526 258H95.3846ZM105.086 258.08C104.275 258.08 103.545 257.899 102.894 257.536C102.254 257.163 101.747 256.656 101.374 256.016C101.001 255.365 100.814 254.624 100.814 253.792C100.814 252.949 101.001 252.208 101.374 251.568C101.747 250.928 102.254 250.427 102.894 250.064C103.534 249.701 104.265 249.52 105.086 249.52C105.918 249.52 106.654 249.701 107.294 250.064C107.945 250.427 108.451 250.928 108.814 251.568C109.187 252.208 109.374 252.949 109.374 253.792C109.374 254.624 109.187 255.365 108.814 256.016C108.451 256.656 107.945 257.163 107.294 257.536C106.643 257.899 105.907 258.08 105.086 258.08ZM105.086 257.072C105.694 257.072 106.233 256.939 106.702 256.672C107.171 256.395 107.539 256.011 107.806 255.52C108.083 255.019 108.222 254.443 108.222 253.792C108.222 253.131 108.083 252.555 107.806 252.064C107.539 251.573 107.171 251.195 106.702 250.928C106.233 250.651 105.699 250.512 105.102 250.512C104.505 250.512 103.971 250.651 103.502 250.928C103.033 251.195 102.659 251.573 102.382 252.064C102.105 252.555 101.966 253.131 101.966 253.792C101.966 254.443 102.105 255.019 102.382 255.52C102.659 256.011 103.033 256.395 103.502 256.672C103.971 256.939 104.499 257.072 105.086 257.072ZM111.693 258V249.6H112.781V251.888L112.669 251.488C112.904 250.848 113.299 250.363 113.853 250.032C114.408 249.691 115.096 249.52 115.917 249.52V250.624C115.875 250.624 115.832 250.624 115.789 250.624C115.747 250.613 115.704 250.608 115.661 250.608C114.776 250.608 114.083 250.88 113.581 251.424C113.08 251.957 112.829 252.72 112.829 253.712V258H111.693ZM117.99 258V249.6H119.126V258H117.99ZM118.566 247.744C118.332 247.744 118.134 247.664 117.974 247.504C117.814 247.344 117.734 247.152 117.734 246.928C117.734 246.704 117.814 246.517 117.974 246.368C118.134 246.208 118.332 246.128 118.566 246.128C118.801 246.128 118.998 246.203 119.158 246.352C119.318 246.501 119.398 246.688 119.398 246.912C119.398 247.147 119.318 247.344 119.158 247.504C119.009 247.664 118.812 247.744 118.566 247.744ZM124.943 258.08C124.154 258.08 123.546 257.867 123.119 257.44C122.692 257.013 122.479 256.411 122.479 255.632V247.744H123.615V255.568C123.615 256.059 123.738 256.437 123.983 256.704C124.239 256.971 124.602 257.104 125.071 257.104C125.572 257.104 125.988 256.96 126.319 256.672L126.719 257.488C126.495 257.691 126.223 257.84 125.903 257.936C125.594 258.032 125.274 258.08 124.943 258.08ZM120.975 250.544V249.6H126.175V250.544H120.975ZM132.058 258.08C131.184 258.08 130.416 257.899 129.754 257.536C129.093 257.163 128.576 256.656 128.202 256.016C127.829 255.365 127.642 254.624 127.642 253.792C127.642 252.96 127.818 252.224 128.17 251.584C128.533 250.944 129.024 250.443 129.642 250.08C130.272 249.707 130.976 249.52 131.754 249.52C132.544 249.52 133.242 249.701 133.85 250.064C134.469 250.416 134.954 250.917 135.306 251.568C135.658 252.208 135.834 252.949 135.834 253.792C135.834 253.845 135.829 253.904 135.818 253.968C135.818 254.021 135.818 254.08 135.818 254.144H128.506V253.296H135.21L134.762 253.632C134.762 253.024 134.629 252.485 134.362 252.016C134.106 251.536 133.754 251.163 133.306 250.896C132.858 250.629 132.341 250.496 131.754 250.496C131.178 250.496 130.661 250.629 130.202 250.896C129.744 251.163 129.386 251.536 129.13 252.016C128.874 252.496 128.746 253.045 128.746 253.664V253.84C128.746 254.48 128.885 255.045 129.162 255.536C129.45 256.016 129.845 256.395 130.346 256.672C130.858 256.939 131.44 257.072 132.09 257.072C132.602 257.072 133.077 256.981 133.514 256.8C133.962 256.619 134.346 256.341 134.666 255.968L135.306 256.704C134.933 257.152 134.464 257.493 133.898 257.728C133.344 257.963 132.73 258.08 132.058 258.08ZM144.99 258.08C144.201 258.08 143.593 257.867 143.166 257.44C142.739 257.013 142.526 256.411 142.526 255.632V247.744H143.662V255.568C143.662 256.059 143.785 256.437 144.03 256.704C144.286 256.971 144.649 257.104 145.118 257.104C145.619 257.104 146.035 256.96 146.366 256.672L146.766 257.488C146.542 257.691 146.27 257.84 145.95 257.936C145.641 258.032 145.321 258.08 144.99 258.08ZM141.022 250.544V249.6H146.222V250.544H141.022ZM151.961 258.08C151.15 258.08 150.42 257.899 149.769 257.536C149.129 257.163 148.622 256.656 148.249 256.016C147.876 255.365 147.689 254.624 147.689 253.792C147.689 252.949 147.876 252.208 148.249 251.568C148.622 250.928 149.129 250.427 149.769 250.064C150.409 249.701 151.14 249.52 151.961 249.52C152.793 249.52 153.529 249.701 154.169 250.064C154.82 250.427 155.326 250.928 155.689 251.568C156.062 252.208 156.249 252.949 156.249 253.792C156.249 254.624 156.062 255.365 155.689 256.016C155.326 256.656 154.82 257.163 154.169 257.536C153.518 257.899 152.782 258.08 151.961 258.08ZM151.961 257.072C152.569 257.072 153.108 256.939 153.577 256.672C154.046 256.395 154.414 256.011 154.681 255.52C154.958 255.019 155.097 254.443 155.097 253.792C155.097 253.131 154.958 252.555 154.681 252.064C154.414 251.573 154.046 251.195 153.577 250.928C153.108 250.651 152.574 250.512 151.977 250.512C151.38 250.512 150.846 250.651 150.377 250.928C149.908 251.195 149.534 251.573 149.257 252.064C148.98 252.555 148.841 253.131 148.841 253.792C148.841 254.443 148.98 255.019 149.257 255.52C149.534 256.011 149.908 256.395 150.377 256.672C150.846 256.939 151.374 257.072 151.961 257.072ZM162.948 258V248.544C162.948 247.797 163.167 247.195 163.604 246.736C164.041 246.277 164.671 246.048 165.492 246.048C165.812 246.048 166.121 246.091 166.42 246.176C166.719 246.261 166.969 246.395 167.172 246.576L166.788 247.424C166.628 247.285 166.441 247.184 166.228 247.12C166.015 247.045 165.785 247.008 165.54 247.008C165.06 247.008 164.692 247.141 164.436 247.408C164.18 247.675 164.052 248.069 164.052 248.592V249.872L164.084 250.4V258H162.948ZM161.444 250.544V249.6H166.644V250.544H161.444ZM168.18 258V249.6H169.316V258H168.18ZM168.756 247.744C168.521 247.744 168.324 247.664 168.164 247.504C168.004 247.344 167.924 247.152 167.924 246.928C167.924 246.704 168.004 246.517 168.164 246.368C168.324 246.208 168.521 246.128 168.756 246.128C168.991 246.128 169.188 246.203 169.348 246.352C169.508 246.501 169.588 246.688 169.588 246.912C169.588 247.147 169.508 247.344 169.348 247.504C169.199 247.664 169.001 247.744 168.756 247.744ZM176.794 249.52C177.477 249.52 178.074 249.653 178.586 249.92C179.109 250.176 179.514 250.571 179.802 251.104C180.101 251.637 180.25 252.309 180.25 253.12V258H179.114V253.232C179.114 252.347 178.89 251.68 178.442 251.232C178.005 250.773 177.386 250.544 176.586 250.544C175.989 250.544 175.466 250.667 175.018 250.912C174.581 251.147 174.239 251.493 173.994 251.952C173.759 252.4 173.642 252.944 173.642 253.584V258H172.506V249.6H173.594V251.904L173.418 251.472C173.685 250.864 174.111 250.389 174.698 250.048C175.285 249.696 175.983 249.52 176.794 249.52ZM186.662 258.08C185.862 258.08 185.142 257.899 184.502 257.536C183.873 257.173 183.377 256.672 183.014 256.032C182.652 255.381 182.47 254.635 182.47 253.792C182.47 252.939 182.652 252.192 183.014 251.552C183.377 250.912 183.873 250.416 184.502 250.064C185.142 249.701 185.862 249.52 186.662 249.52C187.398 249.52 188.054 249.685 188.63 250.016C189.217 250.347 189.681 250.832 190.022 251.472C190.374 252.101 190.55 252.875 190.55 253.792C190.55 254.699 190.38 255.472 190.038 256.112C189.697 256.752 189.233 257.243 188.646 257.584C188.07 257.915 187.409 258.08 186.662 258.08ZM186.742 257.072C187.34 257.072 187.873 256.939 188.342 256.672C188.822 256.395 189.196 256.011 189.462 255.52C189.74 255.019 189.878 254.443 189.878 253.792C189.878 253.131 189.74 252.555 189.462 252.064C189.196 251.573 188.822 251.195 188.342 250.928C187.873 250.651 187.34 250.512 186.742 250.512C186.156 250.512 185.628 250.651 185.158 250.928C184.689 251.195 184.316 251.573 184.038 252.064C183.761 252.555 183.622 253.131 183.622 253.792C183.622 254.443 183.761 255.019 184.038 255.52C184.316 256.011 184.689 256.395 185.158 256.672C185.628 256.939 186.156 257.072 186.742 257.072ZM189.91 258V255.472L190.022 253.776L189.862 252.08V246.128H190.998V258H189.91ZM198.35 258V249.6H199.486V258H198.35ZM198.926 247.744C198.691 247.744 198.494 247.664 198.334 247.504C198.174 247.344 198.094 247.152 198.094 246.928C198.094 246.704 198.174 246.517 198.334 246.368C198.494 246.208 198.691 246.128 198.926 246.128C199.16 246.128 199.358 246.203 199.518 246.352C199.678 246.501 199.758 246.688 199.758 246.912C199.758 247.147 199.678 247.344 199.518 247.504C199.368 247.664 199.171 247.744 198.926 247.744ZM205.303 258.08C204.513 258.08 203.905 257.867 203.479 257.44C203.052 257.013 202.839 256.411 202.839 255.632V247.744H203.975V255.568C203.975 256.059 204.097 256.437 204.343 256.704C204.599 256.971 204.961 257.104 205.431 257.104C205.932 257.104 206.348 256.96 206.679 256.672L207.079 257.488C206.855 257.691 206.583 257.84 206.263 257.936C205.953 258.032 205.633 258.08 205.303 258.08ZM201.335 250.544V249.6H206.535V250.544H201.335ZM216.902 258.08C216.027 258.08 215.259 257.899 214.598 257.536C213.937 257.163 213.419 256.656 213.046 256.016C212.673 255.365 212.486 254.624 212.486 253.792C212.486 252.96 212.662 252.224 213.014 251.584C213.377 250.944 213.867 250.443 214.486 250.08C215.115 249.707 215.819 249.52 216.598 249.52C217.387 249.52 218.086 249.701 218.694 250.064C219.313 250.416 219.798 250.917 220.15 251.568C220.502 252.208 220.678 252.949 220.678 253.792C220.678 253.845 220.673 253.904 220.662 253.968C220.662 254.021 220.662 254.08 220.662 254.144H213.35V253.296H220.054L219.606 253.632C219.606 253.024 219.473 252.485 219.206 252.016C218.95 251.536 218.598 251.163 218.15 250.896C217.702 250.629 217.185 250.496 216.598 250.496C216.022 250.496 215.505 250.629 215.046 250.896C214.587 251.163 214.23 251.536 213.974 252.016C213.718 252.496 213.59 253.045 213.59 253.664V253.84C213.59 254.48 213.729 255.045 214.006 255.536C214.294 256.016 214.689 256.395 215.19 256.672C215.702 256.939 216.283 257.072 216.934 257.072C217.446 257.072 217.921 256.981 218.358 256.8C218.806 256.619 219.19 256.341 219.51 255.968L220.15 256.704C219.777 257.152 219.307 257.493 218.742 257.728C218.187 257.963 217.574 258.08 216.902 258.08ZM228.02 258V256.144L227.972 255.84V252.736C227.972 252.021 227.769 251.472 227.364 251.088C226.969 250.704 226.377 250.512 225.588 250.512C225.044 250.512 224.527 250.603 224.036 250.784C223.545 250.965 223.129 251.205 222.788 251.504L222.276 250.656C222.703 250.293 223.215 250.016 223.812 249.824C224.409 249.621 225.039 249.52 225.7 249.52C226.788 249.52 227.625 249.792 228.212 250.336C228.809 250.869 229.108 251.685 229.108 252.784V258H228.02ZM225.124 258.08C224.495 258.08 223.945 257.979 223.476 257.776C223.017 257.563 222.665 257.275 222.42 256.912C222.175 256.539 222.052 256.112 222.052 255.632C222.052 255.195 222.153 254.8 222.356 254.448C222.569 254.085 222.911 253.797 223.38 253.584C223.86 253.36 224.5 253.248 225.3 253.248H228.196V254.096H225.332C224.521 254.096 223.956 254.24 223.636 254.528C223.327 254.816 223.172 255.173 223.172 255.6C223.172 256.08 223.359 256.464 223.732 256.752C224.105 257.04 224.628 257.184 225.3 257.184C225.94 257.184 226.489 257.04 226.948 256.752C227.417 256.453 227.759 256.027 227.972 255.472L228.228 256.256C228.015 256.811 227.641 257.253 227.108 257.584C226.585 257.915 225.924 258.08 225.124 258.08ZM234.449 258.08C233.756 258.08 233.1 257.984 232.481 257.792C231.863 257.589 231.377 257.339 231.025 257.04L231.537 256.144C231.879 256.4 232.316 256.624 232.849 256.816C233.383 256.997 233.943 257.088 234.529 257.088C235.329 257.088 235.905 256.965 236.257 256.72C236.609 256.464 236.785 256.128 236.785 255.712C236.785 255.403 236.684 255.163 236.481 254.992C236.289 254.811 236.033 254.677 235.713 254.592C235.393 254.496 235.036 254.416 234.641 254.352C234.247 254.288 233.852 254.213 233.457 254.128C233.073 254.043 232.721 253.92 232.401 253.76C232.081 253.589 231.82 253.36 231.617 253.072C231.425 252.784 231.329 252.4 231.329 251.92C231.329 251.461 231.457 251.051 231.713 250.688C231.969 250.325 232.343 250.043 232.833 249.84C233.335 249.627 233.943 249.52 234.657 249.52C235.201 249.52 235.745 249.595 236.289 249.744C236.833 249.883 237.281 250.069 237.633 250.304L237.137 251.216C236.764 250.96 236.364 250.779 235.937 250.672C235.511 250.555 235.084 250.496 234.657 250.496C233.9 250.496 233.34 250.629 232.977 250.896C232.625 251.152 232.449 251.483 232.449 251.888C232.449 252.208 232.545 252.459 232.737 252.64C232.94 252.821 233.201 252.965 233.521 253.072C233.852 253.168 234.209 253.248 234.593 253.312C234.988 253.376 235.377 253.456 235.761 253.552C236.156 253.637 236.513 253.76 236.833 253.92C237.164 254.069 237.425 254.288 237.617 254.576C237.82 254.853 237.921 255.221 237.921 255.68C237.921 256.171 237.783 256.597 237.505 256.96C237.239 257.312 236.844 257.589 236.321 257.792C235.809 257.984 235.185 258.08 234.449 258.08ZM240.006 258V249.6H241.142V258H240.006ZM240.582 247.744C240.347 247.744 240.15 247.664 239.99 247.504C239.83 247.344 239.75 247.152 239.75 246.928C239.75 246.704 239.83 246.517 239.99 246.368C240.15 246.208 240.347 246.128 240.582 246.128C240.817 246.128 241.014 246.203 241.174 246.352C241.334 246.501 241.414 246.688 241.414 246.912C241.414 247.147 241.334 247.344 241.174 247.504C241.025 247.664 240.827 247.744 240.582 247.744ZM244.303 258V246.128H245.439V258H244.303ZM248.664 261.184C248.269 261.184 247.89 261.12 247.528 260.992C247.176 260.864 246.872 260.672 246.616 260.416L247.144 259.568C247.357 259.771 247.586 259.925 247.832 260.032C248.088 260.149 248.37 260.208 248.68 260.208C249.053 260.208 249.373 260.101 249.64 259.888C249.917 259.685 250.178 259.323 250.424 258.8L250.968 257.568L251.096 257.392L254.552 249.6H255.672L251.464 259.008C251.229 259.552 250.968 259.984 250.68 260.304C250.402 260.624 250.098 260.848 249.768 260.976C249.437 261.115 249.069 261.184 248.664 261.184ZM250.904 258.24L247.032 249.6H248.216L251.64 257.312L250.904 258.24Z" fill="#6D7379"/>
</svg>
